<?xml version="1.0" encoding="utf-8"?>
<!-- Generator: Adobe Illustrator 19.0.0, SVG Export Plug-In . SVG Version: 6.00 Build 0)  -->
<svg version="1.1" id="Layer_1" xmlns="http://www.w3.org/2000/svg" xmlns:xlink="http://www.w3.org/1999/xlink" x="0px" y="0px"
	 width="40px" height="40px" viewBox="0 0 40 40" style="enable-background:new 0 0 40 40;" xml:space="preserve">
<style type="text/css">
	.st0{fill:#F05223;}
	.st1{clip-path:url(#XMLID_835_);}
	.st2{fill:#FFFFFF;}
	.st3{clip-path:url(#XMLID_836_);fill:#FFFFFF;}
	.st4{fill:#EDEAEC;}
	.st5{fill:#E2ADCA;}
	.st6{fill:#B1E1EF;}
	.st7{fill:#ED6A5E;}
	.st8{fill:#F8C83D;}
	.st9{fill:#B0AFB0;}
	.st10{fill:#CCCCCC;}
	.st11{fill:#0D0F21;}
	.st12{fill:none;stroke:#231F20;stroke-miterlimit:10;}
	.st13{fill:#020202;}
	.st14{fill:#8AD7F8;}
	.st15{fill:#ACB3BA;}
	.st16{fill:#CFD6E0;}
	.st17{fill:#334A5E;}
	.st18{fill:#FFD05C;}
	.st19{fill:#F3705A;}
	.st20{fill:#E6E9ED;}
	.st21{fill:#F05540;}
	.st22{fill:#FFD15D;}
	.st23{fill:#F8B54C;}
	.st24{fill:#F36F59;}
	.st25{fill:#68533F;}
	.st26{fill:#574430;}
	.st27{fill:#B97850;}
	.st28{fill:#7E5D62;}
	.st29{fill:#99645A;}
	.st30{fill:#BA7958;}
	.st31{fill:#FFCE06;}
	.st32{fill:#FEE672;}
	.st33{clip-path:url(#XMLID_837_);fill:#F9BB3B;}
	.st34{fill:#353535;}
	.st35{fill:#B21F2E;}
	.st36{fill:#91192C;}
	.st37{fill:#EB9783;}
	.st38{fill:#91192B;}
	.st39{fill:#424242;}
	.st40{fill:#606060;}
	.st41{fill:#E5E5E5;}
	.st42{fill:#C1C1C1;}
	.st43{fill:#2B2B2B;}
	.st44{fill:#9B9B9B;}
</style>
<circle id="XMLID_1_" class="st0" cx="-4316" cy="-879.1" r="28.7"/>
<g id="XMLID_2_">
	<defs>
		<rect id="XMLID_4_" x="-4332.9" y="-898.2" width="34.1" height="34.1"/>
	</defs>
	<clipPath id="XMLID_835_">
		<use xlink:href="#XMLID_4_"  style="overflow:visible;"/>
	</clipPath>
	<g id="XMLID_3_" class="st1">
		<path id="XMLID_31_" class="st2" d="M-4304.8-865.4h-22.9c-0.3,0-0.5-0.2-0.5-0.5V-880c0-0.3,0.2-0.5,0.5-0.5
			c0.3,0,0.5,0.2,0.5,0.5v13.7h21.9V-880c0-0.3,0.2-0.5,0.5-0.5c0.3,0,0.5,0.2,0.5,0.5v14.2
			C-4304.3-865.6-4304.5-865.4-4304.8-865.4L-4304.8-865.4z M-4304.8-865.4"/>
		<g id="XMLID_23_">
			<defs>
				<rect id="XMLID_8_" x="-4332.9" y="-898.1" width="34" height="34"/>
			</defs>
			<clipPath id="XMLID_836_">
				<use xlink:href="#XMLID_8_"  style="overflow:visible;"/>
			</clipPath>
			<path id="XMLID_28_" class="st3" d="M-4304.8-879.5c-0.1,0-0.2,0-0.3-0.1l-11.1-10.5l-11.1,10.5c-0.2,0.2-0.5,0.2-0.7,0
				c-0.2-0.2-0.2-0.5,0-0.7l11.4-10.8c0.2-0.2,0.5-0.2,0.7,0l11.4,10.8c0.2,0.2,0.2,0.5,0,0.7
				C-4304.5-879.6-4304.6-879.5-4304.8-879.5L-4304.8-879.5z M-4304.8-879.5"/>
			<path id="XMLID_25_" class="st3" d="M-4300-881.5c-0.1,0-0.3,0-0.4-0.1l-15.8-15l-15.8,15c-0.2,0.2-0.5,0.2-0.7,0
				c-0.2-0.2-0.2-0.5,0-0.7l16.2-15.3c0.2-0.2,0.5-0.2,0.7,0l16.2,15.3c0.2,0.2,0.2,0.5,0,0.7
				C-4299.8-881.6-4299.9-881.5-4300-881.5L-4300-881.5z M-4300-881.5"/>
		</g>
		<path id="XMLID_19_" class="st2" d="M-4312.2-865.4h-8.1c-0.3,0-0.5-0.2-0.5-0.5v-11c0-0.3,0.2-0.5,0.5-0.5h8.1
			c0.3,0,0.5,0.2,0.5,0.5v11C-4311.7-865.6-4311.9-865.4-4312.2-865.4L-4312.2-865.4z M-4319.7-866.4h7.1v-9.9h-7.1V-866.4z
			 M-4319.7-866.4"/>
	</g>
</g>
<image style="overflow:visible;" width="683" height="395" id="XMLID_16_" xlink:href="AB0F1B0D.jpg"  transform="matrix(0.9999 0 0 0.9999 -6580.9146 -1436)">
</image>
<image style="overflow:visible;" width="32" height="32" id="XMLID_126_" xlink:href="AB0F1B0F.jpg"  transform="matrix(0.7188 0 0 0.7188 -4997 -1000)">
</image>
<rect id="XMLID_140_" x="-5881" y="-1136" class="st4" width="758" height="464"/>
<image style="overflow:visible;" width="239" height="120" id="XMLID_127_" xlink:href="AB0F1B0A.jpg"  transform="matrix(3.2934 0 0 3.2934 -6892.5063 -656.0233)">
</image>
<image style="overflow:visible;" width="427" height="832" id="XMLID_141_" xlink:href="../../../../../../../Users/ashwi/Downloads/32-w19605w2283gjsw-mid-shade-wrangler-original-imaeqvgtcqcsturg.png"  transform="matrix(0.6173 0 0 0.6173 -4976.6875 -1188.4966)">
</image>
<image style="overflow:visible;" width="1122" height="2000" id="XMLID_143_" xlink:href="../../../../../../../Users/ashwi/Downloads/shorts.png"  transform="matrix(0.2683 0 0 0.2683 -5427.8486 -1137.0645)">
</image>
<g id="XMLID_158_">
	
		<image style="overflow:visible;" width="1050" height="563" id="XMLID_146_" xlink:href="../../../../../../../Users/ashwi/Downloads/1492064349397.jpg"  transform="matrix(1.0502 0 0 1.0502 -3374.3909 -1112.5454)">
	</image>
	<polygon id="XMLID_153_" class="st5" points="-3373,-825.8 -2899.7,-818.8 -2784.2,-898.7 -2793.3,-934.4 -2797.5,-970.8 
		-2780,-1007.9 -2780.7,-1017.7 -2770.9,-1029.6 -2768.8,-1057.6 -2773.7,-1067.4 -2773,-1087 -2766,-1103.1 -2760.4,-1110.8 
		-2756.2,-1122.7 -3423.4,-1145.8 	"/>
	<path id="XMLID_142_" class="st5" d="M-3436-889.6"/>
	<path id="XMLID_155_" class="st5" d="M-3076.1-834.3"/>
	<polygon id="XMLID_157_" class="st5" points="-2899.7,-816.9 -3020.2,-820.3 -3011,-842.9 -2880,-858.7 	"/>
</g>
<image style="overflow:visible;" width="1500" height="805" id="XMLID_15_" xlink:href="../../../../../../../Users/ashwi/Downloads/1482750376624.jpg"  transform="matrix(0.6929 0 0 0.6929 -4252.2534 -91.8494)">
</image>
<polygon id="XMLID_17_" class="st6" points="-3715,-68.8 -3846,173 -3722,433 -4328,437 -4364,58 -4239,-173 "/>
<circle id="XMLID_18_" class="st7" cx="-3906" cy="55" r="4"/>
<ellipse id="XMLID_22_" class="st7" cx="-4210.5" cy="-18.5" rx="2.5" ry="3.5"/>
<ellipse id="XMLID_24_" class="st7" cx="-4092" cy="-19" rx="3" ry="2"/>
<circle id="XMLID_26_" class="st7" cx="-3951.5" cy="-22.5" r="3.5"/>
<circle id="XMLID_27_" class="st7" cx="-3838.5" cy="-17.5" r="8.5"/>
<circle id="XMLID_29_" class="st7" cx="-4108" cy="54" r="7"/>
<circle id="XMLID_30_" class="st8" cx="-4203.5" cy="328.5" r="4.5"/>
<ellipse id="XMLID_32_" class="st8" cx="-4038" cy="6.5" rx="0" ry="3.5"/>
<circle id="XMLID_33_" class="st8" cx="-4077" cy="382" r="4.5"/>
<circle id="XMLID_34_" class="st8" cx="-4026" cy="282" r="4.5"/>
<circle id="XMLID_35_" class="st8" cx="-4146" cy="194" r="4.5"/>
<circle id="XMLID_36_" class="st8" cx="-4002.5" cy="92" r="4.5"/>
<circle id="XMLID_37_" class="st8" cx="-3841" cy="347" r="4.5"/>
<circle id="XMLID_38_" class="st8" cx="-3945" cy="205.5" r="4.5"/>
<circle id="XMLID_39_" class="st8" cx="-4036" cy="135.5" r="4.5"/>
<circle id="XMLID_40_" class="st7" cx="-3905.5" cy="338.5" r="8.5"/>
<circle id="XMLID_42_" class="st7" cx="-3777" cy="399" r="8.5"/>
<circle id="XMLID_44_" class="st7" cx="-4098" cy="312" r="3.5"/>
<circle id="XMLID_45_" class="st7" cx="-3997" cy="399.5" r="3.5"/>
<circle id="XMLID_46_" class="st7" cx="-4174" cy="376.5" r="3.5"/>
<circle id="XMLID_41_" class="st2" cx="-4197" cy="96" r="3"/>
<circle id="XMLID_43_" class="st2" cx="-4205" cy="241" r="3"/>
<circle id="XMLID_47_" class="st2" cx="-3900" cy="398" r="3"/>
<circle id="XMLID_48_" class="st2" cx="-3881" cy="153" r="3"/>
<image style="overflow:visible;" width="768" height="1152" id="XMLID_117_" xlink:href="../../../../../../../Users/ashwi/Downloads/hmprod.png"  transform="matrix(0.1534 0 0 0.1534 -5437.8647 401.1046)">
</image>
<image style="overflow:visible;" width="832" height="464" id="XMLID_194_" xlink:href="../../../../../../../Users/ashwi/Downloads/black-cm3040-prolific-12-original-imae9249rzsrzx7j.png"  transform="matrix(0.2047 0 0 0.2047 -5254.6997 436.3615)">
</image>
<image style="overflow:visible;" width="642" height="832" id="XMLID_90_" xlink:href="../../../../../../../Users/ashwi/Downloads/hkcs898139a4-lavie-hand-held-bag-original-imaems25f2xryzec.png"  transform="matrix(0.1779 0 0 0.1779 -5573.8442 400.5)">
</image>
<image style="overflow:visible;" width="200" height="252" id="XMLID_197_" xlink:href="../../../../../../../Users/ashwi/Downloads/download.png"  transform="matrix(0.6947 0 0 0.6947 -5571.8462 605.0863)">
</image>
<image style="overflow:visible;" width="225" height="225" id="XMLID_200_" xlink:href="../../../../../../../Users/ashwi/Downloads/images.png"  transform="matrix(0.666 0 0 0.666 -5416.8765 606.0953)">
</image>
<image style="overflow:visible;" width="697" height="832" id="XMLID_89_" xlink:href="../../../../../../../Users/ashwi/Downloads/bag.png"  transform="matrix(0.1731 0 0 0.1731 -5214.0425 587.8238)">
</image>
<image style="overflow:visible;" width="183" height="275" id="XMLID_206_" xlink:href="../../../../../../../Users/ashwi/Downloads/parka.png"  transform="matrix(0.7186 0 0 0.7186 -5854.8496 369.5)">
</image>
<text id="XMLID_86_" transform="matrix(1 0 0 1 -5484.2012 -180.875)" style="fill:#234DA1; font-family:'PTSerif-BoldItalic'; font-size:24.5226px;">BuyBlue</text>
<g id="layer1" transform="translate(-4397.099,-577.1118)">
	<g id="XMLID_180_">
		<g id="g45263_8_" transform="translate(10.62987,8.863696)">
			<path id="path45125_8_" class="st9" d="M3710.5,1086.4c4.8-2.4,7.2-2.1,7.3,0.3c0.1,3.1-0.4,7.3-0.7,10.3
				c-1.8,16.4-4.8,29.8-5,46.6c7.9-20.5,14.5-34.7,23.1-52.3c2.7-5.6,4.4-4.5,6.7-5.5c8.7-3.9,9-1.5,7.9,3.2
				c-4.2,17.5-15,72.6-16.6,81.1c-0.5,2.5-3.1,1.4-3.8,0.5c-3.1-4.3-6.6-4.3-6.2-7.2c1.9-14.2,8.9-49.7,10.7-58
				c-9.3,19-18.9,42.8-23.8,56.2c-1,2.9-3,2.7-4.1,0.6c-1.7-2.9-4.9-4.4-5.4-7.9c-1.7-11,1.9-32.1,2.4-45.4
				c-5,14.6-13.5,42.8-17.2,55.6c-1.5,5.3-6.6,4.4-5.3-0.7c5.6-21.4,17.8-59.3,23.1-72.9C3704.6,1087.6,3707.8,1087.8,3710.5,1086.4
				"/>
			<path id="path45127_8_" class="st9" d="M3679.7,1083.8c-1.6-0.4-6.4,2.2-9.3,2.7c-0.9,0.2-1.8,1.1-2.1,1.8
				c-4.7,10.7-8.9,21-12.5,30.3c-4.6,0.8-10.1,1.8-16.1,3.2c4.3-11.2,8.7-22.2,13-32.7c2.1-5.2-3.4-5.7-5.6-0.4
				c-2.8,6.9-8,19.7-13.8,34.7c-4.3,1-8.8,2.2-13.5,3.6c-3.4,1-3.6,1.9-2.1,4c0.8,1.1,2.5,1,3.3,1.8c2,2.1,3.2,4.7,6.8,5
				c-3.2,8.6-6.4,17.4-9.3,25.9c-1.8,5.3,3.4,6.4,5.4,0.8c3.2-9.1,6.6-18.3,10.1-27.5c2.9-0.7,9.9-2.2,16.4-3.6
				c-5.1,14.1-8.5,24.8-9.8,30c-0.2,1,0.2,1.6,0.4,2c1.7,2.5,3.4,2.6,5.6,5.7c0.6,0.9,2.6,1.3,3.3-0.8c4.8-14.4,9.7-27.9,14.2-40
				c1.9-0.4,5.3-1.2,7.4-4.4c3.7-5.5,4.8-4.4,5.7-6.1c1.1-2.1,0.4-4.1-3.6-3.6c0,0-1.5,0.1-4.3,0.4c4.4-11.3,8.2-20.9,11-28.2
				C3681.2,1086,3681.3,1084.2,3679.7,1083.8"/>
			<path id="path45129_8_" class="st9" d="M3673.3,1157.2c1,2.6,4.2,1.8,3-1.3c-1.2-3.2-4.3-12.7-5.1-15.8c-1.1-4.2,3.7-3,1.2-0.3
				c-2.1,2.3-3.4,3.3-7.3,7.7c-3.7,4.3-2.7,9.8,1.3,11.1c4.5,1.4,8.4-3.5,10.8-7.1c2.4-3.5,0.1-5.5-2.3-3.5
				c-1.5,1.3-3.3,3.4-5.1,4.5c-1.5,0.9-2.6-0.1-0.7-2.7c2.3-3.1,4.8-5.7,6.6-8.6c3.8-5.9-3.7-9.4-7-5.5c-1.7,2.1-1.3,4.1-0.8,5.8
				C3668.7,1144.1,3671.6,1153,3673.3,1157.2"/>
		</g>
	</g>
</g>
<g id="XMLID_170_">
	<path id="XMLID_226_" class="st9" d="M-629.6,646.3c-1.3,1.1-2.4,2.6-3.9,3.4c-4.1,2-7,4.9-8.7,9.1c-1.6,3.8-3,7.7-7.1,9.7
		c3.1,4.5,3.5,9.2,3.4,14c0,2.2,0.9,3.9,2.6,5.4c0.8,0.7,1.1,1.8,1.6,2.7c0.2,0.4,0,1.1,0.3,1.4c2,2.5,0.7,5.2,0.7,7.9
		c-2.7,0.1-3.8-1.4-4.3-3.6c-1.3-5.3-1.6-5.4-5.1-9.7c-2.3-2.9-4.4-6.1-6-9.5c-2.1-4.5-4.9-7-10.1-7c-6.1,0-11.4-2.2-15.5-6.9
		c-1.2-1.4-2.1-1.6-4-0.6c-1.6,0.9-4,0.8-5.9,0.5c-2.3-0.4-4.5-1.6-5.9-2.2c-1.7,0.9-2.6,1.7-3.7,1.8c-0.5,0-1.6-1.3-1.6-2
		c0-0.9,0.7-2.2,1.4-2.5c1.7-0.6,3.7-0.7,5.5-1c0.8-0.1,1.7-0.1,2.4-0.4c0.2-0.1,0.2-1.5-0.1-1.7c-0.7-0.5-1.6-0.8-2.5-1
		c-0.9-0.2-2.2,0.1-2.8-0.4c-3.1-2.2-3.2-4.2-0.2-6.8c1.1-1,2.5-1.7,3.8-2.5c-0.2-0.3-0.5-0.6-0.7-0.9c0.5,0.4,1.1,0.8,1.7,1.3
		c0.6-0.5,1.2-0.9,1.8-1.3c0,0.2-0.1,0.4-0.1,0.7c1.6,0.7,3.1,1.5,4.7,2c5.3,1.6,9.8,4.6,14.1,8c2.4,1.9,4.5,4.1,7,5.8
		c3,2,6.1,3.9,9.4,5.2c4.7,1.8,8.5,0.5,11.4-3.6c1.6-2.2,2.7-4.7,3.7-7.2c2.1-5,5.1-9.1,10.1-11.4c1,0,1.9,0,2.9,0
		C-629.6,644-629.6,645.2-629.6,646.3z"/>
	<path id="XMLID_223_" class="st9" d="M-774.1,680c6.1,0,12.2,0,18.3,0c3.1,0,4,0.8,4,4c0,5.9,0,11.9,0,17.8c0,3.2-1,4.1-4.2,4.1
		c-2.7,0-5.4,0-8.4,0c0,2.9,0,5.7,0,8.8c-3.4,0-6.5,0-9.6,0C-774.1,703.1-774.1,691.5-774.1,680z M-764.5,701.6
		c2.4,0.5,3.4-0.5,3.4-2.6c0-4.1,0-8.2,0-12.2c0-2.5-0.8-3-3.4-2.4C-764.5,690-764.5,695.7-764.5,701.6z"/>
	<path id="XMLID_222_" class="st9" d="M-697,714.4c0-3.6,0-7,0-10.4c0-5.6,0-11.2,0-16.8c0-1.4,0.2-3.1-1.7-3.1
		c-1.9-0.1-1.8,1.7-1.8,3c0,8.2,0,16.4,0,24.6c0,0.9,0,1.8,0,2.8c-3.1,0-6.1,0-9.4,0c0-0.9,0-1.7,0-2.6c0-8.2,0-16.4,0-24.6
		c0-0.6,0.1-1.4-0.1-1.9c-0.3-0.6-1-1.4-1.4-1.3c-0.6,0-1.4,0.7-1.7,1.2c-0.3,0.7-0.2,1.6-0.2,2.4c0,7.9,0,15.9,0,23.8
		c0,0.9,0,1.9,0,3c-3.1,0-6,0-9.1,0c-0.1-0.7-0.1-1.5-0.1-2.2c0-9.3,0-18.6,0-27.9c0-3.5,0.7-4.3,4.2-4.3c9,0,18,0,27,0
		c2.8,0,3.8,1,3.8,3.7c0,9.9,0,19.7,0,29.6c0,0.3-0.1,0.6-0.2,1.1C-690.8,714.4-693.7,714.4-697,714.4z"/>
	<path id="XMLID_221_" class="st9" d="M-735.5,680.1c3.3,0,6.2,0,9.3,0c0.1,0.8,0.1,1.5,0.1,2.3c0,9.3,0,18.6,0,27.9
		c0,3.5-0.8,4.3-4.2,4.3c-4.9,0-9.8,0-14.7,0c-2.2,0-3.4-1-3.4-3.1c0-10.2,0-20.4,0-30.6c0-0.2,0.1-0.4,0.3-0.8c2.9,0,5.9,0,9.1,0
		c0,0.9,0,1.8,0,2.6c0,7.9,0,15.9,0,23.8c0,0.6-0.2,1.2,0,1.7c0.4,0.8,1.1,1.5,1.6,2.3c0.6-0.8,1.7-1.5,1.8-2.3
		c0.2-5,0.1-9.9,0.1-14.9C-735.5,689-735.5,684.7-735.5,680.1z"/>
	<path id="XMLID_218_" class="st9" d="M-662.2,714.5c-3.1,0-6,0-9.1,0c0-2.8,0-5.5,0-8.4c-1.2,0-2.2,0-3.4,0c0,2.7,0,5.4,0,8.3
		c-3.1,0-6,0-9.2,0c-0.1-0.7-0.2-1.5-0.2-2.2c0-9.2,0-18.4,0-27.7c0-3.8,0.7-4.5,4.5-4.5c4.7,0,9.5,0,14.2,0c2.3,0,3.5,1.1,3.5,3.3
		c0,10.2,0,20.4,0,30.5C-662,714-662.1,714.2-662.2,714.5z M-671.4,701.6c0-5.4,0.1-10.5-0.1-15.6c0-0.7-1-1.4-1.5-2.1
		c-0.6,0.5-1.7,1-1.7,1.6c-0.1,5.3-0.1,10.7-0.1,16.1C-673.6,701.6-672.7,701.6-671.4,701.6z"/>
</g>
<g id="layer1_1_" transform="translate(-193.43 -307.55)">
	<g id="g3003">
		<path id="path2425" class="st9" d="M-707.1,909c-0.7,1.3-1.9,3.2-3,4.3h-89.2c-0.6-0.9-2.2-2.9-2.9-4.3H-707.1 M-713.7,917.9
			c-1.1,1.6-2.8,3-4.6,4h-73.1c-1.5-1-2.9-2.5-4.2-4H-713.7 M-723.8,926.1c-7.9,5.9-16.5,8.9-23.1,9.3c0-2.4,0-5.8,0.7-9.3H-723.8
			 M-698.8,879.9c0.7,7.2-1.7,16-6.1,24.9h-32.9c1.2-2.1,2.8-4.1,4.5-6.1C-723.6,887.5-709,880.6-698.8,879.9 M-762.5,935.4
			c-6.3-0.4-15-3.4-23-9.3h22.6C-762.4,929.7-762.4,933-762.5,935.4 M-754.6,936.1c-2.5-2.4-4.8-5.8-7.1-10h14.1
			C-749.8,930.3-752.3,933.7-754.6,936.1 M-771.4,904.8h-33c-4.4-8.9-6.7-17.7-6-24.9c10.1,0.6,24.9,7.6,34.4,18.7
			C-774.3,900.7-772.6,902.7-771.4,904.8 M-740.4,904.8h-28.4c-0.4-2.5-0.4-5-0.4-7.9c0-15.6,6.9-31.7,14.6-38.9
			c7.7,7.2,14.7,23.3,14.7,38.9C-740,899.8-740.2,902.3-740.4,904.8"/>
		<path id="path2447" class="st9" d="M-701.2,941.8c1.3,0,2.4,1.1,2.4,2.6c0,1.3-1.1,2.4-2.4,2.4c-1.3,0-2.4-1.1-2.4-2.4
			C-703.6,942.9-702.5,941.8-701.2,941.8L-701.2,941.8z M-701.2,942.1c-1.2,0-2.1,1-2.1,2.2c0,1.1,0.9,2.1,2.1,2.1
			c1.1,0,2.1-1,2.1-2.1C-699.1,943.1-700.1,942.1-701.2,942.1L-701.2,942.1z M-700.6,944.3c0.1,0,0.4,0.1,0.4,0.6v0.8h-0.4v-0.3
			c0-0.6-0.1-0.8-0.4-0.8h-0.6v1.1h-0.4v-2.8h0.9c0.6,0,1,0.3,1,0.8C-700.2,944-700.4,944.3-700.6,944.3L-700.6,944.3z
			 M-701.6,943.3v0.8h0.4c0.2,0,0.6-0.1,0.6-0.3c0-0.2-0.2-0.4-0.4-0.4H-701.6"/>
		<path id="path2449" class="st9" d="M-707.2,967.4c4.7,0,8.6-1.9,8.6-6.5c0-2.7-1.9-4.4-4.9-5.2c-3.1-0.8-7.1-0.6-7.1-2.7
			c0.2-1.3,1.4-1.7,3.3-1.7c2.9,0,3,1.6,3.1,2.6h4.8c-0.3-3.7-3.3-6.2-8.1-6.2c-5,0-7.9,2.7-7.9,6.1c0,2,1,3.8,2.7,4.7
			c1.2,0.6,2.9,1,4.9,1.3c2.1,0.2,4,0.4,4.1,1.9c0,1-1,2.2-3.2,2.2c-3.2,0-3.9-1.8-3.9-3h-5C-715.8,964.8-712.5,967.4-707.2,967.4"
			/>
		<path id="path2451" class="st9" d="M-728.1,967.4c2.1,0,4-0.7,5.6-1.7v1.2h4.8v-19.1h-4.8v1.4c-1.6-1.1-3.4-1.7-5.6-1.7
			c-5.4,0-10,4.3-10,9.9C-738.1,963-733.5,967.4-728.1,967.4L-728.1,967.4z M-733.4,957.6c0-3,2.5-5.6,5.5-5.6
			c2.9,0,5.3,2.5,5.3,5.6c0,2.9-2.4,5.4-5.3,5.4C-730.8,963-733.4,960.4-733.4,957.6"/>
		<path id="path2453" class="st9" d="M-744.3,941.3v8c-1.7-1.1-3.5-1.7-5.7-1.7c-5.4,0-9.9,4.3-9.9,9.9c0,5.4,4.4,9.9,9.9,9.9
			c2.1,0,4.1-0.7,5.7-1.7v1.2h4.7v-25.7L-744.3,941.3L-744.3,941.3z M-755.3,957.6c0-3,2.5-5.6,5.4-5.6c3,0,5.6,2.5,5.6,5.6
			c0,2.9-2.5,5.4-5.6,5.4C-752.7,963-755.3,960.4-755.3,957.6"/>
		<path id="path2455" class="st9" d="M-766.5,967h4.7v-19.1h-4.7V967z M-766.5,946.1h4.7v-4.8h-4.7V946.1"/>
		<path id="path2457" class="st9" d="M-779.3,967.4c2.1,0,4-0.7,5.7-1.7v1.2h4.8v-25.7h-4.8v8c-1.7-1.1-3.5-1.7-5.7-1.7
			c-5.4,0-10,4.3-10,9.9C-789.2,963-784.7,967.4-779.3,967.4L-779.3,967.4z M-784.7,957.6c0-3,2.5-5.6,5.7-5.6
			c2.9,0,5.4,2.5,5.4,5.6c0,2.9-2.5,5.4-5.4,5.4C-782.2,963-784.7,960.4-784.7,957.6"/>
		<path id="path2459" class="st9" d="M-801.3,967.4c2.2,0,4.1-0.7,5.8-1.7v1.2h4.7v-19.1h-4.7v1.4c-1.7-1.1-3.7-1.7-5.8-1.7
			c-5.4,0-9.9,4.3-9.9,9.9C-811.1,963-806.7,967.4-801.3,967.4L-801.3,967.4z M-806.6,957.6c0-3,2.5-5.6,5.4-5.6
			c3.1,0,5.7,2.5,5.7,5.6c0,2.9-2.5,5.4-5.7,5.4C-804,963-806.6,960.4-806.6,957.6"/>
	</g>
</g>
<g id="XMLID_199_">
	<path id="XMLID_213_" class="st9" d="M-778.3,771c0.2,0,0.4,0,0.5,0c3.3,0,6.6,0,9.9,0c4.7,0,8.3,2.1,10.8,6.1
		c1.3,2,1.9,4.2,2.3,6.5c0.4,2,0.4,4,0.4,6c0,4.6,0,9.2,0,13.8c0,3.2-0.6,6.4-2,9.3c-0.9,2.1-2.2,3.9-4.1,5.2
		c-1.9,1.3-4,1.8-6.3,1.8c-3.7,0-7.3,0-11-0.1c-0.5,0-0.5,0-0.5-0.5c0-15.8,0-31.7,0-47.5C-778.3,771.4-778.3,771.2-778.3,771z
		 M-769.2,778.6c0,11.2,0,22.3,0,33.5c0.2,0,0.4,0.1,0.6,0.1c1.8,0,3.2-0.8,4-2.4c0.7-1.4,1-2.8,1-4.3c0-6.7,0-13.3,0-20
		c0-1.5-0.3-2.9-1-4.3C-765.5,779.1-766.9,778.3-769.2,778.6z"/>
	<path id="XMLID_212_" class="st9" d="M-713.9,805.8c2.7,0,5.4,0,8.1,0c0.1,0.8,0.1,1.5,0.2,2.2c0.1,1.1,0.3,2.1,0.8,3.1
		c0.4,0.8,0.9,1.5,1.9,1.7c0.5,0.1,1,0,1.5-0.1c0.7-0.3,1.4-0.7,2-1.1c0.1-0.1,0.2-0.2,0.3-0.4c0.9-1.7,1-3.4,0.3-5.2
		c-0.7-1.7-1.8-3.1-3.2-4.4c-1.1-1.1-2.4-2-3.7-2.9c-1.9-1.3-3.5-2.9-4.9-4.7c-1.9-2.5-3.2-5.3-3.7-8.5c-0.2-1.3-0.3-2.6-0.1-3.9
		c0.1-1,0.1-1.9,0.3-2.9c0.6-3,1.9-5.6,4.6-7.2c1.5-1,3.3-1.4,5.1-1.6c1.7-0.2,3.5-0.1,5.2,0.4c3,0.9,4.9,2.9,6.2,5.7
		c0.9,2.1,1.4,4.2,1.5,6.5c0,0.8,0,1.5,0,2.3c-2.5,0-5.1,0-7.7,0c-0.1-0.7-0.1-1.4-0.2-2c-0.2-1.2-0.4-2.4-1-3.5
		c-0.9-1.8-2.3-2.2-4-1c-1.1,0.8-1.5,1.9-1.6,3.1c-0.2,1.8,0.6,3.4,1.6,4.8c1.5,2.2,3.4,4.1,5.5,5.6c2.6,1.8,4.6,4.1,6.2,6.8
		c1.8,3.1,2.9,6.4,2.7,10c-0.1,3-0.9,5.8-2.9,8.1c-1.5,1.7-3.4,2.8-5.5,3.4c-2.4,0.7-4.7,0.8-7.1,0.2c-3.1-0.7-5.2-2.7-6.5-5.5
		c-0.9-1.8-1.3-3.8-1.5-5.8c-0.1-1-0.1-2-0.1-2.9C-714,806-713.9,805.9-713.9,805.8z"/>
	<path id="XMLID_211_" class="st9" d="M-678.5,799.1c0,4.4,0,8.7,0,13.1c3.8,0,7.6,0,11.5,0c0,2.6,0,5.1,0,7.6c-0.2,0-0.3,0-0.5,0
		c-6.5,0-13,0-19.4,0c-0.5,0-0.5,0-0.5-0.5c0-6.2-0.1-12.4-0.1-18.7c0-6.2-0.1-12.4-0.1-18.6c0-3.5,0-7.1,0-10.6c0-0.2,0-0.3,0-0.5
		c6.8,0,13.5,0,20.3,0c0,0.1,0,0.3,0,0.4c0,2.4,0,4.7,0,7.1c0,0.4-0.1,0.4-0.5,0.4c-3.4,0-6.7,0-10.1,0c-0.2,0-0.3,0-0.5,0
		c0,4,0,8,0,12.1c2.7,0,5.4,0,8.2,0c0,2.7,0,5.4,0,8.1C-672.9,799.1-675.7,799.1-678.5,799.1z"/>
	<path id="XMLID_210_" class="st9" d="M-736.5,819.5c0-16.2,0-32.3,0-48.5c6.7,0,13.5,0,20.2,0c0,2.6,0,5.1,0,7.7c-3.7,0-7.3,0-11,0
		c0,4,0,8.1,0,12.1c2.6,0,5.2,0,7.9,0c0,0.2,0,0.3,0,0.4c0,2.3,0,4.7,0,7c0,0.4-0.1,0.4-0.4,0.4c-2.4,0-4.7,0-7.1,0
		c-0.2,0-0.3,0-0.5,0c0,4.5,0,9,0,13.5c3.8,0,7.6,0,11.5,0c0,0.2,0,0.3,0,0.4c0,2.1,0,4.2,0,6.4c0,0.3-0.1,0.4-0.4,0.4
		c-6.6,0-13.2,0-19.8,0.1C-736.2,819.5-736.4,819.5-736.5,819.5z"/>
	<path id="XMLID_209_" class="st9" d="M-653.9,812.2c3.1,0,6.2,0,9.3,0c0,0.1,0,0.3,0,0.4c0,2.3,0,4.6,0,6.9c0,0.4-0.1,0.4-0.4,0.4
		c-5.8,0-11.6,0-17.4,0c-0.4,0-0.5-0.1-0.5-0.5c0-7.6,0-15.2,0-22.8c0-8.3,0-16.7,0-25c0-0.2,0-0.4,0-0.6c3,0,5.9,0,8.9,0
		C-653.9,784.8-653.9,798.5-653.9,812.2z"/>
	<path id="XMLID_208_" class="st9" d="M-741.1,819.5c-0.2,0-0.3,0-0.5,0c-2.7,0-5.3,0-8,0c-0.4,0-0.5-0.1-0.5-0.5
		c0-15.9,0-31.8,0-47.7c0-0.3,0-0.4,0.4-0.4c2.7,0,5.5,0,8.2,0c0.1,0,0.2,0,0.3,0C-741.1,787.2-741.1,803.3-741.1,819.5z"/>
	<path id="XMLID_204_" class="st9" d="M-647.1,770.7c1.5,0,2.7,1.2,2.7,2.7c0,1.5-1.2,2.7-2.7,2.7c-1.5,0-2.7-1.2-2.7-2.7
		C-649.8,771.9-648.6,770.7-647.1,770.7z M-645,773.4c0-1.1-0.9-2-2-2.1c-1.1,0-2.1,0.9-2.1,2c0,1.1,0.9,2,2,2.1
		C-646,775.4-645.1,774.5-645,773.4z"/>
	<path id="XMLID_201_" class="st9" d="M-645.9,774.8c-0.4,0.1-0.5,0-0.6-0.3c0-0.2-0.1-0.3-0.1-0.5c-0.1-0.3-0.3-0.5-0.6-0.5
		c-0.2,0-0.3,0-0.3,0.3c0,0.3,0,0.5,0,0.8c0,0.3-0.1,0.4-0.4,0.3c0-1,0-2,0-3c0.4-0.1,0.9-0.2,1.3,0c0.3,0.1,0.5,0.3,0.6,0.7
		c0.1,0.4-0.1,0.7-0.4,0.8C-646.3,773.8-646.1,774.3-645.9,774.8z M-647.5,773.1c0.2,0,0.4,0,0.5,0c0.3,0,0.5-0.3,0.5-0.6
		c0-0.3-0.3-0.5-0.7-0.5c-0.4,0-0.3,0.3-0.3,0.5C-647.5,772.7-647.5,772.9-647.5,773.1z"/>
</g>
<g id="XMLID_216_">
	<path id="XMLID_313_" class="st9" d="M-430.4,551.9c0,6.1-4.8,10.9-10.8,10.9c-6,0-10.7-4.8-10.7-11c0-6.3,4.6-11,10.7-11
		C-435.1,540.8-430.4,545.7-430.4,551.9z M-435.7,551.8c0-3.4-2.3-5.9-5.4-5.9c-3.1,0-5.6,2.7-5.6,6c0,3.4,2.6,6.2,5.7,6.2
		C-438,557.9-435.6,555.2-435.7,551.8z"/>
	<path id="XMLID_312_" class="st9" d="M-381.2,554.1c0,1.3,0,2.4,0,3.6c3.1,0,6.1,0,9.4,0c0,0.9,0,1.7,0,2.5c0,1.6-0.8,2.4-2.3,2.4
		c-4.1,0.1-8.3,0-12.5,0c0-7.2,0-14.3,0-21.5c4.9,0,9.7,0,14.8,0c0,1.1,0.2,2.4-0.1,3.5c-0.2,0.6-1.2,1.3-1.9,1.4
		c-1.8,0.2-3.7,0.1-5.6,0.1c-0.6,0-1.2,0-1.8,0c0,1.1,0,2,0,3.1c2.6,0,5,0,7.6,0c0,1.7,0,3.3,0,5
		C-376.1,554.1-378.6,554.1-381.2,554.1z"/>
	<path id="XMLID_309_" class="st9" d="M-472.3,562.6c-1.6,0-3,0.1-4.5,0c-0.4,0-0.8-0.6-1-1c-0.6-1.2-0.7-3-1.6-3.6
		c-0.9-0.6-2.6-0.2-4-0.2c-0.1,0-0.2,0-0.3,0c-3.2,0-3.2,0-4.4,3c-0.5,1.2-1.2,2-2.7,1.9c-1-0.1-2.1,0-3.3,0c0.2-0.6,0.2-1,0.4-1.4
		c2.3-6.3,4.6-12.6,6.9-18.9c0.4-1,0.8-1.3,1.9-1.3c7,0.1,5.5-0.9,7.6,5.4c1.6,4.9,3.1,9.8,4.7,14.8
		C-472.5,561.6-472.4,562-472.3,562.6z M-480.4,553.2c-0.9-2.3-1.7-4.4-2.7-7c-0.9,2.6-1.7,4.7-2.5,7
		C-483.8,553.2-482.2,553.2-480.4,553.2z"/>
	<path id="XMLID_308_" class="st9" d="M-427.9,559.4c0.3-0.6,0.6-1.2,1-1.8c1-1.5,1.6-1.5,3.3-0.9c1.9,0.6,3.8,1,5.8,1.3
		c0.6,0.1,1.3-0.7,2-1c-0.5-0.7-0.8-1.6-1.4-2c-1.3-0.7-2.8-1-4.1-1.5c-1.1-0.4-2.3-0.8-3.3-1.4c-3.6-2.1-3.9-6.4-0.6-9.1
		c2.7-2.2,5.9-2.3,9.2-1.8c1.7,0.2,3.3,0.9,5.1,1.5c-0.3,0.9-0.6,1.5-0.8,2.1c-0.5,1.5-1.5,1.7-3,1.4c-1.7-0.4-3.5-0.5-5.3-0.5
		c-0.6,0-1.1,0.8-1.7,1.3c0.5,0.5,0.8,1.3,1.4,1.6c2.2,1,4.7,1.6,6.8,2.6c3.3,1.6,4.4,4.9,2.7,7.8c-0.6,0.9-1.4,1.8-2.4,2.4
		C-417.3,564-424.4,563.1-427.9,559.4z"/>
	<path id="XMLID_307_" class="st9" d="M-453.3,542c-0.2,0.8-0.2,1.3-0.4,1.8c-0.6,2.4-1,2.6-3.4,2.1c-4.7-1-8.2,1.4-8.4,5.7
		c-0.2,4.1,2.5,6.8,6.6,6.7c0.5,0,1.1,0,1.6-0.2c2.7-0.9,3.1,0.2,3.7,2.4c0.3,1.1,0,1.4-1,1.7c-4.8,1.4-9.4,1.3-13.4-2.2
		c-3.5-3.1-4.4-8.3-2.5-12.7c1.9-4.2,6.6-6.9,11.5-6.4C-457,541.1-455.2,541.6-453.3,542z"/>
	<path id="XMLID_306_" class="st9" d="M-396.5,546c0,5.6,0,11,0,16.5c-1.8,0-3.5,0-5.4,0c0-5.4,0-10.8,0-16.5c-2.2,0-4.3,0-6.4,0
		c-0.1-0.3-0.2-0.5-0.2-0.6c-0.2-4.3-0.1-4.4,4.2-4.4c4.7,0,9.4,0,14.3,0c0,1.2,0.1,2.4,0,3.5c-0.1,1.1-1,1.5-2,1.5
		C-393.4,546-394.8,546-396.5,546z"/>
	<path id="XMLID_305_" class="st9" d="M-504.5,557.7c2,0,3.8,0,5.6,0c2.1,0,2.4,0.4,2.4,2.5c0,0.7,0,1.4,0,2.2c-4.5,0-8.9,0-13.4,0
		c0-7.1,0-14.1,0-21.3c0.1,0,0.1-0.1,0.2-0.1c5.5-0.3,5.2,0.1,5.2,4.8c0,3.3,0,6.6,0,10C-504.5,556.4-504.5,557-504.5,557.7z"/>
</g>
<g id="XMLID_217_">
	<path id="XMLID_241_" class="st9" d="M-429,732.7v0.2C-428.9,732.8-428.9,732.7-429,732.7z M-486.7,783c0.3,0.2,0.5,0.3,0.8,0.4
		c0.3,0.1,0.5,0.1,0.8,0.1c0.9,0,1.8-0.5,2.4-1.2c0.5-0.6,0.7-1.4,0.5-2.2c-0.1-0.8-0.5-1.5-1.1-1.9c-0.3-0.2-0.5-0.3-0.8-0.4
		c-0.3-0.1-0.5-0.1-0.8-0.1c-0.9,0-1.8,0.5-2.3,1.2C-488.2,780.2-488,782.1-486.7,783z M-392.3,791.1c0.3,0.2,0.5,0.3,0.8,0.4
		c0.3,0.1,0.5,0.1,0.8,0.1c0.9,0,1.8-0.5,2.3-1.2c0.5-0.6,0.7-1.4,0.5-2.2c-0.1-0.8-0.5-1.5-1.1-1.9c-0.3-0.2-0.5-0.3-0.8-0.4
		c-0.3-0.1-0.5-0.1-0.8-0.1c-0.9,0-1.8,0.5-2.3,1.2C-393.8,788.2-393.5,790.1-392.3,791.1z M-414,826.5c-2-0.4-2.4-0.8-2.4-1.6
		c0-0.9,0.7-1.6,2.2-1.6s2.2,0.8,2.2,1.9h1.2c0-1.9-1.3-3-3.4-3s-3.4,1.1-3.4,2.7c0,1.7,1.2,2.4,3.4,2.7c2.1,0.4,2.5,0.9,2.5,1.7
		c0,1.1-0.8,1.8-2.5,1.8c-1.5,0-2.5-0.8-2.5-2.1h-1.2c0,2,1.5,3.3,3.7,3.3c2.2,0,3.7-1,3.7-2.9C-410.6,827.5-411.9,826.9-414,826.5
		L-414,826.5z M-429.2,822.4h1.2v9.7h-1.2V822.4z M-476.4,822.4h-4.1v9.7h1.2v-3.8h2.9c2,0,3.1-1.2,3.1-2.9
		C-473.3,823.6-474.4,822.4-476.4,822.4z M-476.4,827.2h-2.9v-3.6h2.9c1.1,0,2,0.5,2,1.8C-474.5,826.6-475.3,827.2-476.4,827.2z"/>
	<path id="XMLID_233_" class="st9" d="M-388.9,805.8l-0.3,0.3c-1.7,2.1-3.9,3.6-5.1,3.6c-0.2,0-0.3,0-0.5-0.1
		c-0.7-0.4-0.9-0.8-0.2-2.5c0.3-0.6,4.8-13.1,4.8-13.2l0.1-0.4h-4.6l-0.1,0.2c0,0.1-4.3,11.8-5,13l-0.1,0.2
		c-0.1,0.1-0.1,0.2-0.2,0.3c-1.7,1.9-3.4,2.6-4.5,2.6h-0.2c-0.3,0-0.6-0.1-0.8-0.2c-0.7-0.5-0.7-1.1,0-2.8
		c0.3-0.6,7.7-20.5,7.7-20.7l0.2-0.5h-4.6l-3.8,10.4c-0.4-0.7-1.1-1.3-1.9-1.9c-1.1-0.7-2.4-1.1-3.9-1.1c-4,0-7.8,2.7-9.8,6.9
		c-1.1,2.4-1.6,4.4-1.5,6.2v0.7c-1.6,1.8-3.4,3-4.5,3c-0.3,0-0.6-0.1-0.8-0.3c-0.7-0.5-0.6-1.2,0-2.8c0.3-0.6,4.7-12.6,4.7-12.8
		l0.2-0.5h-4.5l-0.9,2.4c-0.4-0.7-1.1-1.3-1.9-1.9c-1.1-0.7-2.4-1.1-3.9-1.1c-4,0-7.8,2.7-9.8,6.9c-0.8,1.6-1.2,3.1-1.4,4.4
		c-1,0.9-2.4,2-3.5,2.9c-1.3,1-4,2.6-6.9,2.6c-0.7,0-1.3-0.1-1.9-0.3c-0.8-0.2-1.5-0.8-1.8-1.6c-0.7-1.4-0.5-3.6,0.4-5.8
		c1.2-2.9,3.5-4.7,5.9-4.8h0.3c2.2,0,3.3,1.9,3.3,3.1c0,0.3,0,0.3,1.3,0.3h1.9c1.2,0,1.2,0,1.3-0.2l0.1-0.2h-0.1
		c-0.1-2.3-1.8-5.2-3.8-6.3c-1.3-0.7-2.6-1-3.9-1c-4,0-7.7,2.6-9.7,6.9c-1.1,2.4-1.6,4.8-1.4,6.9c-1.6,1.8-3.3,2.9-4.4,2.9
		c-0.3,0-0.6-0.1-0.8-0.3c-0.7-0.5-0.6-1.2,0-2.8c0.2-0.5,3-8,4.6-12.5l0.3-0.8h-4.5l-0.9,2.4c-0.4-0.7-1.1-1.3-1.9-1.9
		c-1.1-0.7-2.4-1.1-3.9-1.1c-4,0-7.8,2.7-9.8,6.9c-0.9,1.9-1.4,3.5-1.5,5h-0.2c-1.4,0.1-3.4,0.3-4.3,0.4c0.1-0.2,0.2-0.6,0.4-1.1
		c0.7-2.1,2.1-5.9,3.3-9l3.7-9.8h-4.4l-13.9,10.8l2.6,3.4l8.2-6.1l-4.8,13.3c-4.9,1-9.5,2.7-13.1,5c-3.6,2.3-6.4,5.2-8,8.3
		c-1.6,3.1-1.8,6.2-0.7,8.6c1.2,2.7,3.6,4.2,6.6,4.2c2.4,0,4.9-1,7.1-2.7c4-3.2,7.9-10,11.2-19.7c0-0.1,0.1-0.2,0.1-0.3
		c1.3-0.2,3.1-0.5,4.7-0.7c0.1,0,0.2-0.2,0.3-0.5c0.2-0.4,0.4-1.2,1-2.7v0.4c0.1,4.3,2.9,6.7,4.5,7.3c1.1,0.5,2.3,0.7,3.6,0.7
		c2.2,0,4.4-0.8,6-2.3c0.3,0.4,1,1.2,2.2,1.7c0.6,0.3,1.3,0.4,2,0.4c1.9,0,4.1-1,6.1-2.8c0.8,1,1.8,1.8,2.9,2.3
		c1,0.4,2.2,0.7,3.5,0.7c3.4,0,6.4-1.5,7.6-2.1c1.3-0.7,2.7-1.6,3.9-2.6c0.9,2.1,2.5,3.5,3.8,4c1.1,0.5,2.3,0.7,3.5,0.7
		c2.2,0,4.4-0.8,6-2.3c0.3,0.4,1,1.2,2.2,1.7c0.6,0.3,1.3,0.4,2,0.4c2,0,4.2-1.1,6.2-3c0.8,1.1,1.8,1.9,2.8,2.4
		c1.1,0.5,2.3,0.7,3.6,0.7c2.2,0,4.4-0.8,6-2.3c0.1,0.1,0.2,0.3,0.4,0.5c0.6,0.6,1.2,1.1,1.8,1.4c0.6,0.2,1.3,0.4,2.1,0.4h0.1
		c1.9,0,4-0.8,5.9-2.3c0.5,0.7,1.6,1.8,3.2,2.1c0.4,0.1,0.8,0.1,1.2,0.1c2.7,0,5.4-1.7,8.2-5.1l0.2-0.2L-388.9,805.8L-388.9,805.8z
		 M-504.8,823.7c0,0-3.2,4.4-6.6,4.4c-1.3,0-2.3-0.5-2.8-1.4c-0.8-1.3-0.6-3.1,0.4-5.2c3.7-7.2,12.5-9.6,15.3-10.4h0.1
		C-499,812.9-501.4,819.3-504.8,823.7z M-473.9,806.2c-1.1,2.3-3.2,3.8-5.3,3.8c-0.6,0-1.1-0.1-1.6-0.4c-0.9-0.3-1.5-1-1.9-1.9
		c-0.6-1.4-0.3-3.4,0.7-5.7s3.3-4.7,5.7-4.7h0.1c0.6,0,1.1,0.1,1.5,0.3c0.8,0.4,1.4,1.1,1.8,2.2C-472.6,801.4-472.9,804-473.9,806.2
		z M-432.5,806.2c-1.1,2.3-3.2,3.8-5.3,3.8c-0.6,0-1.1-0.1-1.6-0.4c-0.9-0.3-1.6-1-1.9-1.9c-0.6-1.4-0.3-3.4,0.7-5.7
		s3.3-4.7,5.7-4.7h0.1c0.6,0,1.1,0.1,1.5,0.3c0.8,0.4,1.4,1.1,1.8,2.2C-431.1,801.4-431.4,804-432.5,806.2z M-409.7,806.2
		c-1.1,2.3-3.2,3.8-5.3,3.8c-0.6,0-1.1-0.1-1.6-0.4c-0.9-0.3-1.6-1-1.9-1.9c-0.6-1.4-0.4-3.4,0.6-5.6c1-2.3,3.1-4.7,5.9-4.7
		c0.5,0,1,0.1,1.5,0.3c0.8,0.4,1.4,1.1,1.8,2.2C-408.3,801.4-408.7,804-409.7,806.2z M-439.6,825.4c0-1.7-1.2-2.9-3.1-2.9h-4.3v9.7
		h1.2v-3.8h3.1c1.5,0,1.6,0.8,1.6,1.5v2.4h1.2v-2.4c0-1-0.3-1.7-1-2C-440.1,827.2-439.6,826.4-439.6,825.4z M-442.7,827.2h-3.2v-3.6
		h3.1c1.2,0,1.9,0.6,1.9,1.8C-440.8,826.5-441.6,827.2-442.7,827.2z"/>
	<path id="XMLID_227_" class="st9" d="M-461.6,822.4l-3.7,9.7h1.3l1.1-2.8h3.9l1,2.8h1.3l-3.6-9.7H-461.6z M-462.6,828.2l1.6-4.3
		l1.6,4.3H-462.6z M-443.9,735.2c0,0-2.9-1.8-5.7-2.4c-0.1,0-0.2,0-0.1,0.2c0.2,0.5,2.3,4.6,3.7,9.2h13.4c1.4-4.6,3.5-8.8,3.7-9.2
		v-0.3h-0.1c-2.9,0.6-5.7,2.4-5.7,2.4c-2.1-3.5-4.3-5.6-4.5-5.7h-0.1h-0.1C-439.6,729.6-441.8,731.7-443.9,735.2z M-438.4,757.4
		l4.6-12.1H-445l1,2.6h6.6l-3.6,9.8h-0.1c-11.1,1.7-16.8,8.4-16.7,13.3c0,0.7,0.1,1.4,0.4,2c0.7,1.6,1.8,2.5,3.2,2.9
		c1,0.3,2.1,0.3,3.1,0c1.1-0.3,2.3-0.8,3.2-1.7c4.6-3.7,8.6-14.3,8.6-14.3c1.2-0.1,3.1-0.3,3.1-0.3l0.9-2.4
		C-436.7,757.3-438.3,757.4-438.4,757.4L-438.4,757.4z M-447.3,770c-4.4,5.7-10.4,3.3-7.4-2c3.6-6.4,12.4-7.7,12.7-7.8
		C-441.9,760.3-444.1,765.9-447.3,770z"/>
</g>
<g id="XMLID_198_">
	<path id="XMLID_257_" class="st9" d="M-500.3,681.6c-4.4,0-8-1.3-10.5-3.9c-2.4-2.5-3.8-6.2-3.8-10.5c-0.1-3.7,1.3-7.3,3.7-10
		c1.2-1.3,2.7-2.3,4.4-3c1.8-0.7,3.7-1,5.6-1c5.3,0,8.5,1.5,11.1,4.8v-6.4c-3.4-2.3-7.4-3.4-11.5-3.3c-2.6,0-5.3,0.4-7.8,1.2
		c-2.2,0.8-4.2,2-5.9,3.7c-3.7,3.7-5.7,8.7-5.6,14c-0.2,5.4,1.9,10.5,5.7,14.3c3.5,3.3,8.3,5,13.9,5l0,0c5,0,8.7-1,12.1-3.3v-6.3
		C-491.5,680.1-495.2,681.6-500.3,681.6z"/>
	<path id="XMLID_256_" class="st9" d="M-460.3,661.6c-1.7-1.6-4-2.5-6.3-2.3c-3.8,0-7.5,1-9.4,4.5v-17.5l-5.6,1.9V686h5.6v-11.7
		c0-6.2,3.4-10.5,7.7-10.5c1.4-0.2,2.7,0.4,3.6,1.5c0.8,1.3,1.2,2.8,1.1,4.4V686h5.6v-17.5C-457.8,666-458.6,663.5-460.3,661.6
		L-460.3,661.6L-460.3,661.6z"/>
	<path id="XMLID_253_" class="st9" d="M-427.1,679.8v-20.7l-5,1.8v2.9c-1.4-2.5-3.3-4.7-8-4.7c-3.2,0-6.2,1.4-8.2,3.8
		c-2.2,2.9-3.3,6.5-3.2,10.1c-0.1,3.5,1,7,3.1,9.8c2,2.3,4.9,3.7,7.9,3.6c3.4,0.1,6.7-1.7,8.4-4.7c0,1.2,0.4,3.3,1.8,4.2h5.5l-1-1.1
		C-426.7,683.4-427.2,681.6-427.1,679.8z M-439.2,682.1L-439.2,682.1c-2,0.1-3.9-0.8-5.1-2.4c-1.3-1.9-2-4.1-1.8-6.4
		c-0.1-2.4,0.5-4.7,1.8-6.6c1.2-1.6,3.1-2.5,5.2-2.4c1.9,0,3.7,0.9,4.9,2.4c1.2,1.5,1.4,3.8,1.4,6.6
		C-432.9,678.5-435.3,682.1-439.2,682.1z"/>
	<path id="XMLID_252_" class="st9" d="M-406.1,659.2c-3.2,0-6.1,1.7-7.7,4.5v-4.5l-5.2,1.7v25h5.2v-13.6c0-4.6,2.2-7.6,6.8-7.6
		c0.9,0,1.8,0.1,2.7,0.3c0.4,0.1,0.7,0.2,1,0.4v-5.6C-404.2,659.4-405.1,659.2-406.1,659.2L-406.1,659.2L-406.1,659.2z"/>
	<path id="XMLID_251_" class="st9" d="M-392,679.4v-33.2l-5,1.7v31.7c0,2.2-0.1,4.5,2,6.4h6.6C-391.5,684.7-392,682.2-392,679.4z"/>
	<ellipse id="XMLID_250_" class="st9" cx="-381.2" cy="654.4" rx="3" ry="3.2"/>
	<path id="XMLID_249_" class="st9" d="M-378.6,679.4V660l-5.2,1.7v17.9c0,2.2-0.1,4.5,2,6.4h6.7
		C-378.1,684.7-378.6,682.2-378.6,679.4z"/>
</g>
<g id="XMLID_494_">
	<g id="形状_1_3_">
		<g id="形状_1">
			<g id="XMLID_98_">
				<path id="XMLID_99_" class="st10" d="M328,501.2l-3.1,19.2h5l3.1-19.2H328L328,501.2z M320.7,501.2l-4.8,13.2l-0.6-2.8l0,0
					l-0.1-0.6c-0.6-1.2-1.9-3.6-4.4-5.6c-0.7-0.6-1.5-1.1-2.2-1.5l4.3,16.6h5.2l7.9-19.2H320.7L320.7,501.2z M340.2,506.5
					c0-2.2,4.9-1.9,7-0.7l0.7-4.1c0,0-2.2-0.8-4.5-0.8c-2.5,0-8.4,1.1-8.4,6.4c0,5,6.9,5,6.9,7.6c0,2.6-6.2,2.1-8.2,0.5l-0.7,4.3
					c0,0,2.2,1.1,5.6,1.1c3.4,0,8.5-1.8,8.5-6.6C347.2,509.2,340.2,508.7,340.2,506.5z M360.6,501.2h-4c-1.9,0-2.3,1.4-2.3,1.4
					l-7.4,17.8h5.2l1-2.8h6.3l0.6,2.8h4.6L360.6,501.2z M354.5,513.6l2.6-7.2l1.5,7.2H354.5z"/>
			</g>
		</g>
	</g>
	<g id="形状_1_2_">
		<g id="形状_1_1_">
			<g id="XMLID_96_">
				<path id="XMLID_87_" class="st10" d="M313.8,503c0,0-0.2-1.7-2.4-1.7h-8l-0.1,0.3c0,0,3.9,0.8,7.6,3.7c3.5,2.8,4.7,6.3,4.7,6.3
					L313.8,503z"/>
			</g>
		</g>
	</g>
</g>
<g id="XMLID_285_">
	<g id="XMLID_293_">
		<g id="XMLID_333_">
			<path id="XMLID_152_" class="st10" d="M347.3,551.6c0-7.3-5.9-13.3-13.3-13.3c-3.2,0-6.1,1.1-8.4,3c1.7,1.7,3.1,3.7,3.7,6.1h-1.1
				c-0.7-2.1-1.9-4-3.5-5.5c-1.6,1.5-2.7,3.4-3.5,5.5h-1.1c0.7-2.4,2-4.5,3.7-6.1c-2.3-1.9-5.1-3-8.3-3c-7.3,0-13.2,6-13.2,13.3
				c0,7.3,5.9,13.3,13.3,13.3c3.2,0,6.1-1.2,8.3-3c-1.7-1.7-3-3.7-3.7-6.1h1.1c0.7,2.1,1.9,4,3.5,5.5c1.6-1.5,2.8-3.4,3.5-5.5h1.1
				c-0.7,2.4-2,4.5-3.7,6.1c2.3,1.9,5.2,3,8.4,3C341.4,564.9,347.3,558.9,347.3,551.6"/>
		</g>
		<g id="XMLID_331_">
			<path id="XMLID_151_" class="st11" d="M337.6,554.7l0.9-4.9h1.2l0.1,0.5c0.2-0.2,0.6-0.5,1.3-0.5l-0.4,1.3
				c-0.4,0-0.9-0.1-1.4,1.4l-0.4,2.2H337.6"/>
		</g>
		<g id="XMLID_329_">
			<path id="XMLID_150_" class="st11" d="M319.9,548.6h1.3l-0.3,1.3h0.7l-0.2,1h-0.6l-0.4,1.9c-0.1,0.4,0,0.7,0.7,0.6l-0.1,1.1
				c-0.3,0.2-0.6,0.2-1,0.2c-0.3,0-1.3-0.2-1.1-1.5L319.9,548.6"/>
		</g>
		<g id="XMLID_327_">
			<path id="XMLID_147_" class="st11" d="M325.7,552.6c0.1-0.8,0.5-2.7-1.8-2.7c-2.2,0-2.5,2.2-2.5,2.5c-0.1,0.3-0.1,2.5,2.2,2.5
				c0.6,0,1.4-0.1,1.7-0.2l0.2-1c-0.2,0.1-0.9,0.1-1.5,0.1c-0.5,0-1.4,0-1.2-1.1H325.7"/>
		</g>
		<g id="XMLID_325_">
			<path id="XMLID_145_" class="st11" d="M318.6,551l0.3-1c-0.6-0.2-1.2-0.2-1.3-0.2c-0.2,0-1.8,0-2,1.2c-0.2,0.9,0.1,1.3,0.4,1.4
				c0.5,0.2,0.8,0.4,1.1,0.6c0.4,0.1,0.3,0.7-0.1,0.7c-0.2,0-1.1,0.1-1.7-0.1l-0.2,1c0.6,0.1,1.1,0.1,1.6,0.1c0.4,0,1.9,0.1,2.2-1.4
				c0.1-0.7-0.2-1-0.4-1.2c-0.3-0.1-0.6-0.4-0.9-0.5c-0.3-0.1-0.5-0.6,0-0.7C317.6,550.9,318.3,550.9,318.6,551"/>
		</g>
		<g id="XMLID_323_">
			<polyline id="XMLID_144_" class="st11" points="310,554.7 311.1,548.8 308.9,548.8 307.3,552.4 307,548.8 304.9,548.8 
				303.8,554.7 305.1,554.7 305.9,550.5 306.3,554.7 307.5,554.7 309.4,550.5 308.6,554.7 310,554.7 			"/>
		</g>
		<g id="XMLID_321_">
			<path id="XMLID_139_" class="st11" d="M311.5,550l-0.2,1.1c0.4,0,1.2-0.1,1.7-0.1s1-0.1,0.8,0.6c-0.4,0-2.7-0.4-3.1,1.7
				c-0.1,1,0.7,1.5,1.4,1.5s0.9-0.1,1.1-0.3l0.1,0.3h1.2l0.5-2.7c0.1-0.6,0.4-2.2-1.9-2.2C312.8,549.8,312.3,549.8,311.5,550"/>
		</g>
		<g id="XMLID_319_">
			<path id="XMLID_138_" class="st11" d="M333,550.2c-0.4-0.2-0.6-0.2-1-0.2s-1.4,0.4-1.6,1.6c-0.2,1.4,0.7,2.1,2.1,1.7l0.4,1.2
				c-0.4,0.2-0.9,0.3-1.6,0.3c-1.4,0-2.9-1.2-2.2-3.7c0.5-1.8,2.1-2.5,3-2.5c1.1,0.1,1.5,0.4,1.8,0.8L333,550.2"/>
		</g>
		<g id="XMLID_317_">
			<path id="XMLID_137_" class="st11" d="M344.4,550.4c-0.3-0.2-0.4-0.6-1-0.6c-0.7,0-1.9-0.1-2.5,2.1c-0.4,1.5,0.4,2.8,1.4,2.8
				c0.4,0,0.9-0.2,1.2-0.4l0.1,0.4h1.4l1.2-6.2h-1.4L344.4,550.4"/>
		</g>
		<g id="XMLID_304_">
			<path id="XMLID_107_" class="st11" d="M334,550l-0.2,1.1c0.4,0,1.2-0.1,1.7-0.1s0.9-0.1,0.8,0.6c-0.4,0-2.7-0.4-3.1,1.7
				c-0.1,1,0.7,1.5,1.4,1.5s0.9-0.1,1.1-0.3l0.1,0.3h1.2l0.5-2.7c0.1-0.6,0.4-2.2-1.9-2.2C335.3,549.8,334.8,549.8,334,550"/>
		</g>
		<g id="XMLID_302_">
			<path id="XMLID_106_" class="st10" d="M322.9,551.6h1.7c0.1-0.5-0.1-0.9-0.6-0.9C323.4,550.8,323,551,322.9,551.6"/>
		</g>
		<g id="XMLID_300_">
			<path id="XMLID_105_" class="st10" d="M313.5,552.6c-0.2,0-0.7-0.1-1.2,0.1c-0.4,0.3-0.6,0.8-0.1,0.9c0.4,0.1,1-0.1,1.2-0.6
				L313.5,552.6"/>
		</g>
		<g id="XMLID_298_">
			<path id="XMLID_104_" class="st10" d="M343.9,552.4c0.1-0.4,0.1-1-0.1-1.2c-0.4-0.6-1.4-0.1-1.7,0.9c-0.2,0.7,0.2,1.2,0.6,1.2
				C343.3,553.3,343.6,553,343.9,552.4"/>
		</g>
		<g id="XMLID_296_">
			<path id="XMLID_103_" class="st10" d="M336.1,552.6c-0.2,0-0.7-0.1-1.2,0.1c-0.4,0.3-0.6,0.8-0.1,0.9c0.4,0.1,1.1-0.1,1.2-0.6
				L336.1,552.6"/>
		</g>
		<g id="XMLID_294_">
			<path id="XMLID_102_" class="st11" d="M325.7,554.7l0.9-4.8h1.2l0.1,0.5c0.2-0.2,0.6-0.5,1.3-0.5l-0.4,1.3
				c-0.3,0-0.9-0.1-1.4,1.4l-0.4,2.2L325.7,554.7"/>
		</g>
	</g>
	<g id="XMLID_286_">
		<g id="XMLID_291_">
			<path id="XMLID_101_" class="st10" d="M315.9,538.4c-5.8,0-10.8,3.8-12.5,9.1h17.2c0.7-2.4,2-4.5,3.7-6.1
				C321.9,539.5,319,538.4,315.9,538.4z"/>
		</g>
		<g id="XMLID_289_">
			<path id="XMLID_100_" class="st10" d="M325,542c-1.6,1.5-2.7,3.3-3.5,5.5h6.9C327.7,545.4,326.5,543.5,325,542z"/>
		</g>
		<g id="XMLID_287_">
			<path id="XMLID_97_" class="st10" d="M334,538.4c-3.2,0-6.1,1.1-8.4,3c1.7,1.7,3,3.7,3.7,6.1h17.2
				C344.9,542.2,340,538.4,334,538.4z"/>
		</g>
	</g>
</g>
<g id="XMLID_326_">
	<g id="XMLID_358_">
		<path id="XMLID_359_" class="st10" d="M352.5,585.1h-5.6c-0.3,0-0.7,0.3-0.8,0.7l-2.3,14.5c0,0.3,0.2,0.5,0.5,0.5h3
			c0.3,0,0.5-0.2,0.5-0.5l0.7-4.1c0-0.3,0.3-0.7,0.8-0.7h1.8c3.8,0,5.9-1.8,6.4-5.4c0.3-1.5,0-2.8-0.7-3.6
			C355.8,585.6,354.3,585.1,352.5,585.1 M353.1,590.5c-0.3,2-1.8,2-3.3,2h-1l0.7-3.8c0-0.2,0.2-0.3,0.5-0.3h0.3c1,0,2,0,2.5,0.7
			C353.1,589.2,353.1,589.7,353.1,590.5"/>
	</g>
	<g id="XMLID_354_">
		<path id="XMLID_355_" class="st10" d="M312.2,585.1h-5.6c-0.3,0-0.7,0.3-0.8,0.7l-2.3,14.5c0,0.3,0.2,0.5,0.5,0.5h2.6
			c0.3,0,0.7-0.3,0.8-0.7l0.7-3.9c0-0.3,0.3-0.7,0.8-0.7h1.8c3.8,0,5.9-1.8,6.4-5.4c0.3-1.5,0-2.8-0.7-3.6
			C315.5,585.6,314.2,585.1,312.2,585.1 M312.8,590.5c-0.3,2-1.8,2-3.3,2h-0.8l0.7-3.8c0-0.2,0.2-0.3,0.5-0.3h0.3c1,0,2,0,2.5,0.7
			C312.8,589.2,313,589.7,312.8,590.5"/>
	</g>
	<g id="XMLID_350_">
		<path id="XMLID_351_" class="st10" d="M329.1,590.4h-2.6c-0.2,0-0.5,0.2-0.5,0.3l-0.2,0.8l-0.2-0.3c-0.7-0.8-1.8-1.2-3.1-1.2
			c-3,0-5.6,2.3-6.1,5.4c-0.3,1.6,0.2,3.1,1,4.1c0.8,1,2,1.3,3.5,1.3c2.5,0,3.8-1.5,3.8-1.5l-0.2,0.8c0,0.3,0.2,0.5,0.5,0.5h2.5
			c0.3,0,0.7-0.3,0.8-0.7l1.5-9.2C329.6,590.7,329.3,590.4,329.1,590.4 M325.3,595.6c-0.3,1.5-1.5,2.6-3.1,2.6
			c-0.8,0-1.5-0.3-1.8-0.7c-0.3-0.5-0.5-1.2-0.5-2c0.2-1.5,1.5-2.6,3-2.6c0.8,0,1.3,0.3,1.8,0.7C325.2,594.1,325.3,595,325.3,595.6"
			/>
	</g>
	<g id="XMLID_346_">
		<path id="XMLID_347_" class="st10" d="M369.2,590.4h-2.6c-0.2,0-0.5,0.2-0.5,0.3l-0.2,0.8l-0.2-0.3c-0.7-0.8-1.8-1.2-3.1-1.2
			c-3,0-5.6,2.3-6.1,5.4c-0.3,1.6,0.2,3.1,1,4.1c0.8,1,2,1.3,3.5,1.3c2.5,0,3.8-1.5,3.8-1.5l-0.2,0.8c0,0.3,0.2,0.5,0.5,0.5h2.5
			c0.3,0,0.7-0.3,0.8-0.7l1.5-9.2C369.7,590.7,369.6,590.4,369.2,590.4 M365.5,595.6c-0.3,1.5-1.5,2.6-3.1,2.6
			c-0.8,0-1.5-0.3-1.8-0.7c-0.3-0.5-0.5-1.2-0.5-2c0.2-1.5,1.5-2.6,3-2.6c0.8,0,1.3,0.3,1.8,0.7C365.5,594.1,365.6,595,365.5,595.6"
			/>
	</g>
	<g id="XMLID_328_">
		<g id="XMLID_344_">
			<path id="XMLID_332_" class="st10" d="M343.4,590.4h-2.8c-0.3,0-0.5,0.2-0.7,0.3l-3.6,5.6l-1.6-5.3c-0.2-0.3-0.3-0.5-0.8-0.5
				h-2.6c-0.3,0-0.5,0.3-0.5,0.7l3,8.7l-2.8,3.9c-0.2,0.3,0,0.8,0.3,0.8h2.6c0.3,0,0.5-0.2,0.7-0.3l9-13
				C344.1,590.8,343.8,590.4,343.4,590.4"/>
		</g>
		<g id="XMLID_342_">
			<path id="XMLID_330_" class="st10" d="M372.4,585.6l-2.3,14.8c0,0.3,0.2,0.5,0.5,0.5h2.3c0.3,0,0.7-0.3,0.8-0.7l2.3-14.5
				c0-0.3-0.2-0.5-0.5-0.5h-2.6C372.7,585.1,372.5,585.3,372.4,585.6"/>
		</g>
	</g>
</g>
<path class="st12" d="M417.8,610.8c0,0-0.6-3.1,5.8-3.1c0,0,9.5-2.4,13.9-9.7c4.5-7.4-0.4-4.3,14.8-1.3c0,0,1-0.1,1,0.8
	c-0.1,0.9,1.7,10.3,1.1,12.6c0,0,1.1-0.1,0.4,4.1c0,0-4.5,1.6-19.6,1.1c-15.1-0.5-17.6-2.6-17.6-2.6S416.5,612,417.8,610.8z"/>
<path class="st12" d="M439,595.4c0,0,2.3,0.8,4.6-0.8"/>
<path class="st12" d="M453.7,601.7c0,0-10.3,7.1-15.2,7.2c-4.9,0.2-1.2-4.6-1.2-4.6l1-1.3c0,0-1,4.3,3.4,2.3
	c4.4-1.9,11.5-5.1,11.5-5.1"/>
<path class="st12" d="M429.1,605.4c0,0,1,6.9,5.4,6.8"/>
<path class="st12" d="M417.8,610.8c0,0,23.1,3.6,36.6-0.7"/>
<circle class="st13" cx="437" cy="601.6" r="0.5"/>
<circle class="st13" cx="435.7" cy="602.9" r="0.5"/>
<circle class="st13" cx="434.3" cy="604" r="0.5"/>
<circle class="st13" cx="432.6" cy="605.1" r="0.5"/>
<path class="st12" d="M446.8,605.9c0.9,1.7,1.4,3.5,1.3,5.5"/>
<path class="st12" d="M445.4,603.7c-2.9-3.9-6.9-6.4-6.9-6.4"/>
<path class="st12" d="M453.6,597.4c0,0,3,0,0.4,4.5"/>
<path class="st12" d="M437.1,598.6c0,0,0,0.1,0,0.1"/>
<path class="st12" d="M418.4,609.4c0,0,5.2-0.1,7.6,0.1c1,0.1,2.5-0.5,4-1.2"/>
<g id="XMLID_638_">
	<path id="XMLID_734_" class="st14" d="M-133,103c11,0,20,9,20,20s-9,20-20,20s-20-9-20-20S-144,103-133,103L-133,103z"/>
	<path id="XMLID_733_" class="st15" d="M-138,113.9c0,0.1,0.1,0.2,0.1,0.2l0,0c0.3,0.6,0.5,1.1,0.8,1.7c0.3-0.2,0.7-0.3,1.1-0.4
		c2-0.7,4.2-0.7,6.2,0c0.4,0.1,0.7,0.3,1.1,0.4c0.3-0.6,0.5-1.1,0.8-1.7c0,0,0,0,0,0c0-0.1,0.1-0.2,0.1-0.2
		C-131.2,112.5-134.8,112.5-138,113.9L-138,113.9z"/>
	<path id="XMLID_732_" class="st16" d="M-136.1,115.5c1.4,0.7,3.1,1.2,3.1,1.2s1.7-0.5,3.1-1.2
		C-131.9,114.8-134.1,114.8-136.1,115.5L-136.1,115.5z"/>
	<path id="XMLID_731_" class="st17" d="M-133,113.5c0.1,0,0.2-0.1,0.2-0.2v-0.6c0-1.1-0.5-2.2-1.4-3c-0.4-0.4-0.6-0.9-0.6-1.4
		c0.1-0.9,0.8-1.6,1.6-1.6c0.5,0,1,0.1,1.3,0.5c0.4,0.3,0.6,0.8,0.6,1.3c0,0.1,0.1,0.2,0.2,0.2c0.1,0,0.2-0.1,0.2-0.2
		c0-0.6-0.3-1.2-0.7-1.6c-0.4-0.4-1-0.6-1.6-0.6c-1.1,0.1-2,0.9-2,2c0,0.7,0.2,1.3,0.7,1.8c0.8,0.7,1.2,1.7,1.2,2.7v0.6
		C-133.2,113.4-133.1,113.5-133,113.5L-133,113.5z"/>
	<path class="st18" d="M-133,114.3l9.6,4.2h-19.1L-133,114.3L-133,114.3z M-145.3,119.3c0.1,0.2,0.3,0.3,0.4,0.3h23.8
		c0.3,0,0.5-0.2,0.5-0.5c0-0.2-0.1-0.3-0.3-0.4l-11.9-6.5c-0.2-0.1-0.3-0.1-0.5,0l-11.9,6.5C-145.4,118.8-145.5,119.1-145.3,119.3
		L-145.3,119.3z"/>
	<path id="XMLID_728_" class="st19" d="M-150.8,122.5l5.2,5.5l3-2.4v15c2.8,1.5,6.1,2.4,9.5,2.4c3.4,0,6.7-0.9,9.5-2.4v-15l3,2.4
		l5.2-5.5l-6.1-5.8c-0.5-0.5-1.2-0.8-1.9-1l-4.9-0.9c0,0.3-0.1,0.5-0.5,0.5c0,0-0.1,0-0.1,0c-0.5,1.5-2.2,2.6-4.2,2.6
		c-2.1,0-3.8-1.2-4.3-2.7c-0.1,0-0.2,0.1-0.2,0.1c-0.3,0-0.5-0.3-0.5-0.5l-4.8,0.8c-0.7,0.1-1.4,0.5-1.9,1L-150.8,122.5
		L-150.8,122.5z"/>
	<polygon id="XMLID_727_" class="st17" points="-122,126.8 -120.4,128 -115.2,122.5 -116.6,121.2 -122,126.8 	"/>
	<polygon id="XMLID_726_" class="st20" points="-122,126.8 -120.4,128 -115.2,122.5 -116.6,121.2 -122,126.8 	"/>
	<polygon id="XMLID_725_" class="st20" points="-150.8,122.5 -145.6,128 -144,126.8 -149.4,121.2 -150.8,122.5 	"/>
	<polygon id="XMLID_724_" class="st21" points="-134.3,116.7 -131.7,116.7 -131.7,125.2 -134.3,125.2 -134.3,116.7 	"/>
	<path id="XMLID_723_" class="st20" d="M-137.5,118.1l2.1,2.3l2.3-3.7c0,0-1.7-0.5-3.1-1.2c-0.8-0.4-1.5-0.8-1.8-1.3l0,0
		c-0.1-0.1-0.1-0.2-0.1-0.2l-0.3,0.7C-138.8,115.7-138.5,116.9-137.5,118.1L-137.5,118.1z"/>
	<path id="XMLID_722_" class="st20" d="M-133,116.7l2.3,3.7l2.1-2.3c1-1.1,1.3-2.3,0.8-3.5l-0.3-0.7c0,0.1-0.1,0.2-0.1,0.2
		c0,0,0,0,0,0c-0.3,0.4-1,0.9-1.8,1.3C-131.3,116.2-133,116.7-133,116.7L-133,116.7z"/>
	<path id="XMLID_721_" class="st20" d="M-133,120.8c0.4,0,0.7,0.3,0.7,0.7c0,0.4-0.3,0.7-0.7,0.7s-0.7-0.3-0.7-0.7
		C-133.7,121.1-133.4,120.8-133,120.8L-133,120.8z"/>
	<path id="XMLID_720_" class="st20" d="M-133,123.3c0.4,0,0.7,0.3,0.7,0.7s-0.3,0.7-0.7,0.7s-0.7-0.3-0.7-0.7
		S-133.4,123.3-133,123.3L-133,123.3z"/>
</g>
<g id="XMLID_641_">
	<path id="XMLID_744_" class="st22" d="M20,0c11,0,20,9,20,20s-9,20-20,20S0,31,0,20S9,0,20,0L20,0z"/>
	<path id="XMLID_743_" class="st23" d="M22.9,39.8c7.6-1.1,13.8-6.5,16.1-13.7l-6.6-6.6l-7.3,1.2L8.3,25.2L22.9,39.8L22.9,39.8z"/>
	<path id="XMLID_742_" class="st24" d="M33.3,22.4H8.9c-0.4,0-0.7,0.3-0.7,0.7v1.6c0,0.4,0.3,0.7,0.7,0.7h6.7c0.1,0,0.2,0,0.3,0
		l2-0.7l2,0.7c0.1,0,0.2,0,0.3,0h13.3c0.4,0,0.7-0.3,0.7-0.7v-1.6C34.1,22.7,33.7,22.4,33.3,22.4L33.3,22.4z"/>
	<path id="XMLID_741_" class="st21" d="M33.3,22.4H20v3.1h13.3c0.4,0,0.7-0.3,0.7-0.7v-1.6C34.1,22.7,33.7,22.4,33.3,22.4L33.3,22.4
		z"/>
	<path id="XMLID_740_" class="st25" d="M34.1,22.9c-0.1-1.5-1.3-4.4-5-5.1c-4-0.8-10.8-4.3-10.9-4.4c-0.2-0.1-0.5-0.1-0.7,0
		c-3.8,2.4-8.1,0-8.1,0c-0.2-0.1-0.5-0.1-0.7,0c-0.2,0.1-0.4,0.4-0.4,0.6V23c0,0.4,0.3,0.7,0.7,0.7h24.4c0.2,0,0.4-0.1,0.5-0.2
		C34,23.3,34.1,23.1,34.1,22.9L34.1,22.9z"/>
	<path id="XMLID_739_" class="st26" d="M34.1,22.9c-0.1-1.5-1.3-4.4-5-5.1c-2.7-0.5-6.7-2.3-9-3.4v9.3h13.3c0.2,0,0.4-0.1,0.5-0.2
		C34,23.3,34.1,23.1,34.1,22.9L34.1,22.9z"/>
	<path id="XMLID_738_" class="st27" d="M22,16.5c0.3,0,0.5,0.2,0.5,0.5c0,0.3-0.2,0.5-0.5,0.5c-0.3,0-0.5-0.2-0.5-0.5
		C21.5,16.7,21.7,16.5,22,16.5L22,16.5z"/>
	<path id="XMLID_737_" class="st27" d="M25,17.4c0.3,0,0.5,0.2,0.5,0.5c0,0.3-0.2,0.5-0.5,0.5c-0.3,0-0.5-0.2-0.5-0.5
		C24.4,17.7,24.7,17.4,25,17.4L25,17.4z"/>
	<path id="XMLID_736_" class="st27" d="M19.1,15c0.3,0,0.5,0.2,0.5,0.5c0,0.3-0.2,0.5-0.5,0.5c-0.3,0-0.5-0.2-0.5-0.5
		C18.5,15.3,18.8,15,19.1,15L19.1,15z"/>
</g>
<g id="XMLID_640_">
	<path class="st28" d="M1236.8,77c-5.3,0-9.6-2.9-9.6-6.4V45c0-3.5,4.3-6.4,9.6-6.4c5.3,0,9.6,2.9,9.6,6.4v25.6
		C1246.4,74.1,1242.1,77,1236.8,77L1236.8,77z M1236.8,77"/>
	<path class="st28" d="M1115.2,77c-5.3,0-9.6-2.9-9.6-6.4V45c0-3.5,4.3-6.4,9.6-6.4c5.3,0,9.6,2.9,9.6,6.4v25.6
		C1124.8,74.1,1120.5,77,1115.2,77L1115.2,77z M1115.2,77"/>
	<path class="st29" d="M1361.8,230.6H990.6c-3.5,0-6.4,2.9-6.4,6.4v108.8c0,17.6,14.4,32,32,32h320c17.6,0,32-14.4,32-32V237
		C1368.2,233.4,1365.3,230.6,1361.8,230.6L1361.8,230.6z M1361.8,230.6"/>
	<path class="st30" d="M1349,70.6h-345.6c-17.6,0-32,14.4-32,32v111.4c0,12.9,7.7,24.5,19.7,29.6c52.7,22.4,108.4,35,165.9,37.4
		h38.4c0.1,0,0.2,0,0.3,0c57.2-2.4,113-14.9,165.6-37.4c12-5.1,19.7-16.7,19.7-29.6V102.6C1381,84.9,1366.6,70.6,1349,70.6
		L1349,70.6z M1349,70.6"/>
	<path class="st28" d="M1253,211.4c0-14.1-11.5-25.6-25.6-25.6H1125c-14.1,0-25.6,11.5-25.6,25.6v63.6c19,3.1,38.2,5.2,57.6,6h38.4
		c0.1,0,0.2,0,0.3,0c19.3-0.8,38.4-2.9,57.3-6V211.4z M1253,211.4"/>
	<path class="st31" d="M1182.6,301h-12.8c-7.1,0-12.8-5.7-12.8-12.8v-25.6c0-7.1,5.7-12.8,12.8-12.8h12.8c7.1,0,12.8,5.7,12.8,12.8
		v25.6C1195.4,295.2,1189.6,301,1182.6,301L1182.6,301z M1182.6,301"/>
	<path class="st29" d="M1246.6,48c-1.2,0-2.5-0.2-3.7-0.5c-19.2-5.8-42.3-8.8-66.7-8.8c-24.4,0-47.5,3.1-66.7,8.8
		c-6.8,2.1-13.9-1.8-15.9-8.6c-2-6.8,1.8-13.9,8.6-15.9c21.6-6.5,47.2-9.9,74.1-9.9c26.9,0,52.5,3.4,74.1,9.9
		c6.8,2,10.6,9.2,8.6,15.9C1257.1,44.4,1252.1,48,1246.6,48L1246.6,48z M1246.6,48"/>
	<path class="st32" d="M1188.8,249.8h-25.6c-3.5,0-6.4,2.9-6.4,6.4V269c0,7.1,5.7,12.8,12.8,12.8h12.8c7.1,0,12.8-5.7,12.8-12.8
		v-12.8C1195.2,252.6,1192.3,249.8,1188.8,249.8L1188.8,249.8z M1188.8,249.8"/>
</g>
<g id="XMLID_708_">
	<g>
		<defs>
			<rect id="XMLID_815_" x="-152.7" y="47.3" width="40" height="40.1"/>
		</defs>
		<clipPath id="XMLID_837_">
			<use xlink:href="#XMLID_815_"  style="overflow:visible;"/>
		</clipPath>
		<path class="st33" d="M-112.7,67.3c0-11-9-20-20-20c-11,0-20,9-20,20c0,11,9,20,20,20C-121.6,87.3-112.7,78.4-112.7,67.3
			L-112.7,67.3z M-112.7,67.3"/>
	</g>
	<path class="st34" d="M-124.6,76.7c0,0.3-0.2,0.6-0.6,0.6c-0.3,0-0.6-0.2-0.6-0.6v-1.4c0-0.3,0.2-0.6,0.6-0.6
		c0.3,0,0.6,0.2,0.6,0.6V76.7z M-124.6,76.7"/>
	<path class="st35" d="M-130.8,63.2c-6.4,0-5.6,13.4-5.6,13.4c0,1.2,1,2.2,2.2,2.2h6.7c1.2,0,2.2-1,2.2-2.2
		C-125.2,76.6-124.3,63.2-130.8,63.2L-130.8,63.2z M-130.8,63.2"/>
	<path class="st36" d="M-136.4,76.6c0,1.2,1,2.2,2.2,2.2h6.7c1.2,0,2.2-1,2.2-2.2c0,0,0-0.8,0-2h-11.3
		C-136.4,75.7-136.4,76.6-136.4,76.6L-136.4,76.6z M-136.4,76.6"/>
	<path class="st37" d="M-130.8,63.8c-1,0-1.8,0.4-2.4,1.1h4.8C-129,64.3-129.8,63.8-130.8,63.8L-130.8,63.8z M-130.8,63.8"/>
	<path class="st36" d="M-133.2,65.3h4.8v-0.3l-0.1-0.1h-4.7l-0.1,0.1V65.3z M-133.2,65.3"/>
	<path class="st38" d="M-129.5,68.6c0,0.7-0.6,1.4-1.4,1.4s-1.4-0.6-1.4-1.4c0-0.7,0.6-1.4,1.4-1.4S-129.5,67.9-129.5,68.6
		L-129.5,68.6z M-129.5,68.6"/>
	<path class="st38" d="M-129.5,74.9c0,0.7-0.6,1.4-1.4,1.4s-1.4-0.6-1.4-1.4s0.6-1.4,1.4-1.4S-129.5,74.1-129.5,74.9L-129.5,74.9z
		 M-129.5,74.9"/>
	<path class="st39" d="M-129.9,74.9c0,0.5-0.4,1-1,1c-0.5,0-1-0.4-1-1c0-0.5,0.4-1,1-1C-130.3,73.9-129.9,74.3-129.9,74.9
		L-129.9,74.9z M-129.9,74.9"/>
	<path class="st40" d="M-131.4,75.3c-0.3-0.3-0.3-0.8,0-1c0.3-0.3,0.8-0.3,1,0C-130,74.6-131.1,75.6-131.4,75.3L-131.4,75.3z
		 M-131.4,75.3"/>
	<path class="st39" d="M-129.8,68.6c0,0.6-0.5,1.1-1.1,1.1c-0.6,0-1.1-0.5-1.1-1.1c0-0.6,0.5-1.1,1.1-1.1
		C-130.2,67.5-129.8,68-129.8,68.6L-129.8,68.6z M-129.8,68.6"/>
	<path class="st39" d="M-132.8,52.6h-1.4l0.3,1.6h0.7c0.8,0,1.5,0.7,1.5,1.5v12.7h1.5V55.3C-130.1,53.8-131.3,52.6-132.8,52.6
		L-132.8,52.6z M-132.8,52.6"/>
	<rect id="XMLID_792_" x="-136.8" y="57.7" class="st41" width="1.5" height="18.1"/>
	<rect id="XMLID_791_" x="-136.9" y="57.7" class="st42" width="0.8" height="18.1"/>
	<path class="st39" d="M-133.4,52.6h-0.7c-1.5,0-2.7,1.2-2.7,2.7v2.5h1.5v-2.1c0-0.8,0.7-1.5,1.5-1.5h0.4V52.6z M-133.4,52.6"/>
	<path class="st43" d="M-136.5,56.6c0-0.1,0.2-0.3,0.4-0.3c0.2,0,0.4,0.1,0.4,0.3v0.9c0,0.1-0.8,0.1-0.8,0L-136.5,56.6L-136.5,56.6z
		 M-136.5,56.6"/>
	<path class="st39" d="M-136.6,57.2c0-0.2,0.2-0.3,0.5-0.3c0.3,0,0.5,0.1,0.5,0.3v0.2c0,0.2-1,0.2-1,0V57.2z M-136.6,57.2"/>
	<path class="st39" d="M-135.3,80.1c0,0.3-0.3,0.6-0.6,0.6h-0.3c-0.3,0-0.6-0.3-0.6-0.6v-4.3h1.5L-135.3,80.1L-135.3,80.1z
		 M-135.3,80.1"/>
	<path class="st34" d="M-131.5,81.2c0,0.5-0.5,1-1.1,1h-7.1c-0.6,0-1.1-0.4-1.1-1c0,0,0.9-1.8,1.4-1.8h6.4
		C-132.4,79.3-131.5,81.2-131.5,81.2L-131.5,81.2z M-131.5,81.2"/>
	<path class="st39" d="M-131.5,81.2c0,0.5-9.2,0.5-9.2,0c0,0,0.9-1.8,1.4-1.8h6.4C-132.4,79.3-131.5,81.2-131.5,81.2L-131.5,81.2z
		 M-131.5,81.2"/>
	<rect id="XMLID_778_" x="-131.3" y="64.6" class="st44" width="0.9" height="0.1"/>
	<rect id="XMLID_777_" x="-131.3" y="65.9" class="st44" width="0.9" height="0.1"/>
	<rect id="XMLID_776_" x="-131.3" y="67.1" class="st44" width="0.9" height="0.1"/>
	<rect id="XMLID_775_" x="-131.3" y="68.4" class="st44" width="0.9" height="0.1"/>
	<rect id="XMLID_774_" x="-131.3" y="63.4" class="st44" width="0.9" height="0.1"/>
	<rect id="XMLID_773_" x="-131.3" y="62.1" class="st44" width="0.9" height="0.1"/>
	<rect id="XMLID_772_" x="-131.3" y="59.6" class="st44" width="0.9" height="0.1"/>
	<rect id="XMLID_771_" x="-131.3" y="60.9" class="st44" width="0.9" height="0.1"/>
	<rect id="XMLID_770_" x="-131.3" y="58.4" class="st44" width="0.9" height="0.1"/>
	<rect id="XMLID_769_" x="-131.3" y="57.1" class="st44" width="0.9" height="0.1"/>
	<rect id="XMLID_768_" x="-131.3" y="55.9" class="st44" width="0.9" height="0.1"/>
	<path class="st44" d="M-131.4,54.8L-131.4,54.8l0.9-0.4l0,0.1L-131.4,54.8z M-131.4,54.8"/>
	<path class="st44" d="M-132,54.2L-132,54.2l0.6-0.8l0.1,0.1L-132,54.2z M-132,54.2"/>
	<rect id="XMLID_763_" x="-132.8" y="52.9" class="st44" width="0.1" height="0.9"/>
</g>
<g id="XMLID_681_">
	<path id="XMLID_833_" class="st18" d="M-136-9c11,0,20,9,20,20c0,11-9,20-20,20c-11,0-20-9-20-20C-156,0-147-9-136-9L-136-9z"/>
	<polygon id="XMLID_832_" class="st21" points="-145.1,13.3 -143.7,17.4 -142.3,17 -141.5,16.2 -143.2,11.2 -145.1,13.3 	"/>
	<polygon id="XMLID_831_" class="st19" points="-145.7,14 -146.1,18 -143.7,17.4 -145.1,13.3 -145.7,14 	"/>
	<polygon id="XMLID_830_" class="st19" points="-143.2,11.2 -141.5,16.2 -139.6,14 -141.3,9 -143.2,11.2 	"/>
	<polygon id="XMLID_829_" class="st21" points="-139.4,6.8 -141.3,9 -139.6,14 -137.7,11.9 -139.4,6.8 	"/>
	<polygon id="XMLID_828_" class="st19" points="-135.8,9.7 -136.9,6.3 -138,5.3 -139.4,6.8 -137.7,11.9 -135.8,9.7 	"/>
	<polygon id="XMLID_827_" class="st21" points="-134.6,8.3 -136.9,6.3 -135.8,9.7 -134.6,8.3 	"/>
	<polygon id="XMLID_826_" class="st21" points="-138,25.4 -130.7,18.4 -131.3,14.1 -140.5,22.8 -138,25.4 	"/>
	<polygon id="XMLID_825_" class="st19" points="-141.5,21.7 -140.5,22.8 -131.3,14.1 -132,9.7 -141,18.3 -141.5,21.7 	"/>
	<polygon id="XMLID_824_" class="st19" points="-135.8,27.6 -130.2,21.7 -130.7,18.4 -138,25.4 -135.8,27.6 	"/>
	<polygon id="XMLID_823_" class="st21" points="-141,18.3 -132,9.7 -132.6,5.3 -140.1,12.5 -141,18.3 	"/>
	<polygon id="XMLID_822_" class="st19" points="-139.3,6.8 -140.1,12.5 -132.6,5.3 -133.2,1 -139.3,6.8 	"/>
	<polygon id="XMLID_821_" class="st15" points="-138.5,0.9 -138.5,1 -138.4,0.9 -138.5,0.9 	"/>
	<polygon id="XMLID_820_" class="st21" points="-133.2,0.9 -138.4,0.9 -138.5,1 -139.3,6.8 -133.2,1 -133.2,0.9 	"/>
	<polygon id="XMLID_819_" class="st19" points="-133.2,-4.5 -138.5,-4.5 -140.1,-2.3 -138.5,0.9 -138.4,0.9 -133.2,0.9 -131.5,-2.3 
		-133.2,-4.5 	"/>
</g>
</svg>
