<svg id="Layer_1" xmlns="http://www.w3.org/2000/svg" xmlns:xlink="http://www.w3.org/1999/xlink" width="40" height="40" viewBox="0 0 40 40"><style>.st0{fill:#f05223}.st1{clip-path:url(#XMLID_835_)}.st2,.st3{fill:#fff}.st3{clip-path:url(#XMLID_836_)}.st4{fill:#edeaec}.st5{fill:#e2adca}.st6{fill:#b1e1ef}.st7{fill:#ed6a5e}.st8{fill:#f8c83d}.st9{fill:#b0afb0}.st10{fill:#ccc}.st11{fill:#0d0f21}.st12{fill:none;stroke:#231f20;stroke-miterlimit:10}.st13{fill:#020202}.st14{fill:#8ad7f8}.st15{fill:#acb3ba}.st16{fill:#cfd6e0}.st17{fill:#334a5e}.st18{fill:#ffd05c}.st19{fill:#f3705a}.st20{fill:#e6e9ed}.st21{fill:#f05540}.st22{fill:#ffd15d}.st23{fill:#f8b54c}.st24{fill:#f36f59}.st25{fill:#68533f}.st26{fill:#574430}.st27{fill:#b97850}.st28{fill:#7e5d62}.st29{fill:#99645a}.st30{fill:#ba7958}.st31{fill:#ffce06}.st32{fill:#fee672}.st33{clip-path:url(#XMLID_837_);fill:#f9bb3b}.st34{fill:#353535}.st35{fill:#b21f2e}.st36{fill:#91192c}.st37{fill:#eb9783}.st38{fill:#91192b}.st39{fill:#424242}.st40{fill:#606060}.st41{fill:#e5e5e5}.st42{fill:#c1c1c1}.st43{fill:#2b2b2b}.st44{fill:#9b9b9b}</style><circle id="XMLID_1_" class="st0" cx="-4316" cy="-879.1" r="28.7"/><g id="XMLID_2_"><defs><path id="XMLID_4_" d="M-4332.9-898.2h34.1v34.1h-34.1z"/></defs><clipPath id="XMLID_835_"><use xlink:href="#XMLID_4_" overflow="visible"/></clipPath><g id="XMLID_3_" class="st1"><path id="XMLID_31_" class="st2" d="M-4304.8-865.4h-22.9c-.3 0-.5-.2-.5-.5V-880c0-.3.2-.5.5-.5s.5.2.5.5v13.7h21.9V-880c0-.3.2-.5.5-.5s.5.2.5.5v14.2c0 .2-.2.4-.5.4zm0 0"/><g id="XMLID_23_"><defs><path id="XMLID_8_" d="M-4332.9-898.1h34v34h-34z"/></defs><clipPath id="XMLID_836_"><use xlink:href="#XMLID_8_" overflow="visible"/></clipPath><path id="XMLID_28_" class="st3" d="M-4304.8-879.5c-.1 0-.2 0-.3-.1l-11.1-10.5-11.1 10.5c-.2.2-.5.2-.7 0-.2-.2-.2-.5 0-.7l11.4-10.8c.2-.2.5-.2.7 0l11.4 10.8c.2.2.2.5 0 .7 0 0-.1.1-.3.1zm0 0"/><path id="XMLID_25_" class="st3" d="M-4300-881.5c-.1 0-.3 0-.4-.1l-15.8-15-15.8 15c-.2.2-.5.2-.7 0-.2-.2-.2-.5 0-.7l16.2-15.3c.2-.2.5-.2.7 0l16.2 15.3c.2.2.2.5 0 .7-.2 0-.3.1-.4.1zm0 0"/></g><path id="XMLID_19_" class="st2" d="M-4312.2-865.4h-8.1c-.3 0-.5-.2-.5-.5v-11c0-.3.2-.5.5-.5h8.1c.3 0 .5.2.5.5v11c0 .3-.2.5-.5.5zm-7.5-1h7.1v-9.9h-7.1v9.9zm0 0"/></g></g><image width="683" height="395" id="XMLID_16_" xlink:href="D13BD7B6.jpg" transform="translate(-6580.915 -1436) scale(.9999)" overflow="visible"/><image width="32" height="32" id="XMLID_126_" xlink:href="D13BD7BA.jpg" transform="translate(-4997 -1000) scale(.7188)" overflow="visible"/><path id="XMLID_140_" class="st4" d="M-5881-1136h758v464h-758z"/><image width="239" height="120" id="XMLID_127_" xlink:href="D13BD7BD.jpg" transform="translate(-6892.506 -656.023) scale(3.2934)" overflow="visible"/><image width="427" height="832" id="XMLID_141_" xlink:href="../../../../../../../Users/ashwi/Downloads/32-w19605w2283gjsw-mid-shade-wrangler-original-imaeqvgtcqcsturg.png" transform="translate(-4976.688 -1188.497) scale(.6173)" overflow="visible"/><image width="1122" height="2000" id="XMLID_143_" xlink:href="../../../../../../../Users/ashwi/Downloads/shorts.png" transform="translate(-5427.849 -1137.064) scale(.2683)" overflow="visible"/><g id="XMLID_158_"><image width="1050" height="563" id="XMLID_146_" xlink:href="../../../../../../../Users/ashwi/Downloads/1492064349397.jpg" transform="translate(-3374.39 -1112.545) scale(1.0502)" overflow="visible"/><path id="XMLID_153_" class="st5" d="M-3373-825.8l473.3 7 115.5-79.9-9.1-35.7-4.2-36.4 17.5-37.1-.7-9.8 9.8-11.9 2.1-28-4.9-9.8.7-19.6 7-16.1 5.6-7.7 4.2-11.9-667.2-23.1z"/><path id="XMLID_157_" class="st5" d="M-2899.7-816.9l-120.5-3.4 9.2-22.6 131-15.8z"/></g><image width="1500" height="805" id="XMLID_15_" xlink:href="../../../../../../../Users/ashwi/Downloads/1482750376624.jpg" transform="translate(-4252.253 -91.85) scale(.6929)" overflow="visible"/><path id="XMLID_17_" class="st6" d="M-3715-68.8L-3846 173l124 260-606 4-36-379 125-231z"/><circle id="XMLID_18_" class="st7" cx="-3906" cy="55" r="4"/><ellipse id="XMLID_22_" class="st7" cx="-4210.5" cy="-18.5" rx="2.5" ry="3.5"/><ellipse id="XMLID_24_" class="st7" cx="-4092" cy="-19" rx="3" ry="2"/><circle id="XMLID_26_" class="st7" cx="-3951.5" cy="-22.5" r="3.5"/><circle id="XMLID_27_" class="st7" cx="-3838.5" cy="-17.5" r="8.5"/><circle id="XMLID_29_" class="st7" cx="-4108" cy="54" r="7"/><circle id="XMLID_30_" class="st8" cx="-4203.5" cy="328.5" r="4.5"/><circle id="XMLID_33_" class="st8" cx="-4077" cy="382" r="4.5"/><circle id="XMLID_34_" class="st8" cx="-4026" cy="282" r="4.5"/><circle id="XMLID_35_" class="st8" cx="-4146" cy="194" r="4.5"/><circle id="XMLID_36_" class="st8" cx="-4002.5" cy="92" r="4.5"/><circle id="XMLID_37_" class="st8" cx="-3841" cy="347" r="4.5"/><circle id="XMLID_38_" class="st8" cx="-3945" cy="205.5" r="4.5"/><circle id="XMLID_39_" class="st8" cx="-4036" cy="135.5" r="4.5"/><circle id="XMLID_40_" class="st7" cx="-3905.5" cy="338.5" r="8.5"/><circle id="XMLID_42_" class="st7" cx="-3777" cy="399" r="8.5"/><circle id="XMLID_44_" class="st7" cx="-4098" cy="312" r="3.5"/><circle id="XMLID_45_" class="st7" cx="-3997" cy="399.5" r="3.5"/><circle id="XMLID_46_" class="st7" cx="-4174" cy="376.5" r="3.5"/><circle id="XMLID_41_" class="st2" cx="-4197" cy="96" r="3"/><circle id="XMLID_43_" class="st2" cx="-4205" cy="241" r="3"/><circle id="XMLID_47_" class="st2" cx="-3900" cy="398" r="3"/><circle id="XMLID_48_" class="st2" cx="-3881" cy="153" r="3"/><image width="768" height="1152" id="XMLID_117_" xlink:href="../../../../../../../Users/ashwi/Downloads/hmprod.png" transform="translate(-5437.865 401.105) scale(.1534)" overflow="visible"/><image width="832" height="464" id="XMLID_194_" xlink:href="../../../../../../../Users/ashwi/Downloads/black-cm3040-prolific-12-original-imae9249rzsrzx7j.png" transform="translate(-5254.7 436.361) scale(.2047)" overflow="visible"/><image width="642" height="832" id="XMLID_90_" xlink:href="../../../../../../../Users/ashwi/Downloads/hkcs898139a4-lavie-hand-held-bag-original-imaems25f2xryzec.png" transform="translate(-5573.844 400.5) scale(.1779)" overflow="visible"/><image width="200" height="252" id="XMLID_197_" xlink:href="../../../../../../../Users/ashwi/Downloads/download.png" transform="translate(-5571.846 605.086) scale(.6947)" overflow="visible"/><image width="225" height="225" id="XMLID_200_" xlink:href="../../../../../../../Users/ashwi/Downloads/images.png" transform="matrix(.666 0 0 .666 -5416.877 606.095)" overflow="visible"/><image width="697" height="832" id="XMLID_89_" xlink:href="../../../../../../../Users/ashwi/Downloads/bag.png" transform="translate(-5214.042 587.824) scale(.1731)" overflow="visible"/><image width="183" height="275" id="XMLID_206_" xlink:href="../../../../../../../Users/ashwi/Downloads/parka.png" transform="translate(-5854.85 369.5) scale(.7186)" overflow="visible"/><text id="XMLID_86_" transform="translate(-5484.201 -180.875)" fill="#234da1" font-family="PTSerif-BoldItalic" font-size="24.523">BuyBlue</text><g id="layer1" transform="translate(-4397.099 -577.112)"><g id="XMLID_180_"><g id="g45263_8_" transform="translate(10.63 8.864)"><path id="path45125_8_" class="st9" d="M3710.5 1086.4c4.8-2.4 7.2-2.1 7.3.3.1 3.1-.4 7.3-.7 10.3-1.8 16.4-4.8 29.8-5 46.6 7.9-20.5 14.5-34.7 23.1-52.3 2.7-5.6 4.4-4.5 6.7-5.5 8.7-3.9 9-1.5 7.9 3.2-4.2 17.5-15 72.6-16.6 81.1-.5 2.5-3.1 1.4-3.8.5-3.1-4.3-6.6-4.3-6.2-7.2 1.9-14.2 8.9-49.7 10.7-58-9.3 19-18.9 42.8-23.8 56.2-1 2.9-3 2.7-4.1.6-1.7-2.9-4.9-4.4-5.4-7.9-1.7-11 1.9-32.1 2.4-45.4-5 14.6-13.5 42.8-17.2 55.6-1.5 5.3-6.6 4.4-5.3-.7 5.6-21.4 17.8-59.3 23.1-72.9 1-3.3 4.2-3.1 6.9-4.5"/><path id="path45127_8_" class="st9" d="M3679.7 1083.8c-1.6-.4-6.4 2.2-9.3 2.7-.9.2-1.8 1.1-2.1 1.8-4.7 10.7-8.9 21-12.5 30.3-4.6.8-10.1 1.8-16.1 3.2 4.3-11.2 8.7-22.2 13-32.7 2.1-5.2-3.4-5.7-5.6-.4-2.8 6.9-8 19.7-13.8 34.7-4.3 1-8.8 2.2-13.5 3.6-3.4 1-3.6 1.9-2.1 4 .8 1.1 2.5 1 3.3 1.8 2 2.1 3.2 4.7 6.8 5-3.2 8.6-6.4 17.4-9.3 25.9-1.8 5.3 3.4 6.4 5.4.8 3.2-9.1 6.6-18.3 10.1-27.5 2.9-.7 9.9-2.2 16.4-3.6-5.1 14.1-8.5 24.8-9.8 30-.2 1 .2 1.6.4 2 1.7 2.5 3.4 2.6 5.6 5.7.6.9 2.6 1.3 3.3-.8 4.8-14.4 9.7-27.9 14.2-40 1.9-.4 5.3-1.2 7.4-4.4 3.7-5.5 4.8-4.4 5.7-6.1 1.1-2.1.4-4.1-3.6-3.6 0 0-1.5.1-4.3.4 4.4-11.3 8.2-20.9 11-28.2.9-2.4 1-4.2-.6-4.6"/><path id="path45129_8_" class="st9" d="M3673.3 1157.2c1 2.6 4.2 1.8 3-1.3-1.2-3.2-4.3-12.7-5.1-15.8-1.1-4.2 3.7-3 1.2-.3-2.1 2.3-3.4 3.3-7.3 7.7-3.7 4.3-2.7 9.8 1.3 11.1 4.5 1.4 8.4-3.5 10.8-7.1 2.4-3.5.1-5.5-2.3-3.5-1.5 1.3-3.3 3.4-5.1 4.5-1.5.9-2.6-.1-.7-2.7 2.3-3.1 4.8-5.7 6.6-8.6 3.8-5.9-3.7-9.4-7-5.5-1.7 2.1-1.3 4.1-.8 5.8.8 2.6 3.7 11.5 5.4 15.7"/></g></g></g><g id="XMLID_170_"><path id="XMLID_226_" class="st9" d="M-629.6 646.3c-1.3 1.1-2.4 2.6-3.9 3.4-4.1 2-7 4.9-8.7 9.1-1.6 3.8-3 7.7-7.1 9.7 3.1 4.5 3.5 9.2 3.4 14 0 2.2.9 3.9 2.6 5.4.8.7 1.1 1.8 1.6 2.7.2.4 0 1.1.3 1.4 2 2.5.7 5.2.7 7.9-2.7.1-3.8-1.4-4.3-3.6-1.3-5.3-1.6-5.4-5.1-9.7-2.3-2.9-4.4-6.1-6-9.5-2.1-4.5-4.9-7-10.1-7-6.1 0-11.4-2.2-15.5-6.9-1.2-1.4-2.1-1.6-4-.6-1.6.9-4 .8-5.9.5-2.3-.4-4.5-1.6-5.9-2.2-1.7.9-2.6 1.7-3.7 1.8-.5 0-1.6-1.3-1.6-2 0-.9.7-2.2 1.4-2.5 1.7-.6 3.7-.7 5.5-1 .8-.1 1.7-.1 2.4-.4.2-.1.2-1.5-.1-1.7-.7-.5-1.6-.8-2.5-1-.9-.2-2.2.1-2.8-.4-3.1-2.2-3.2-4.2-.2-6.8 1.1-1 2.5-1.7 3.8-2.5-.2-.3-.5-.6-.7-.9.5.4 1.1.8 1.7 1.3.6-.5 1.2-.9 1.8-1.3 0 .2-.1.4-.1.7 1.6.7 3.1 1.5 4.7 2 5.3 1.6 9.8 4.6 14.1 8 2.4 1.9 4.5 4.1 7 5.8 3 2 6.1 3.9 9.4 5.2 4.7 1.8 8.5.5 11.4-3.6 1.6-2.2 2.7-4.7 3.7-7.2 2.1-5 5.1-9.1 10.1-11.4h2.9c-.3 1-.3 2.2-.3 3.3z"/><path id="XMLID_223_" class="st9" d="M-774.1 680h18.3c3.1 0 4 .8 4 4v17.8c0 3.2-1 4.1-4.2 4.1h-8.4v8.8h-9.6c-.1-11.6-.1-23.2-.1-34.7zm9.6 21.6c2.4.5 3.4-.5 3.4-2.6v-12.2c0-2.5-.8-3-3.4-2.4v17.2z"/><path id="XMLID_222_" class="st9" d="M-697 714.4v-27.2c0-1.4.2-3.1-1.7-3.1-1.9-.1-1.8 1.7-1.8 3v27.4h-9.4v-27.2c0-.6.1-1.4-.1-1.9-.3-.6-1-1.4-1.4-1.3-.6 0-1.4.7-1.7 1.2-.3.7-.2 1.6-.2 2.4v26.8h-9.1c-.1-.7-.1-1.5-.1-2.2v-27.9c0-3.5.7-4.3 4.2-4.3h27c2.8 0 3.8 1 3.8 3.7v29.6c0 .3-.1.6-.2 1.1-3.1-.1-6-.1-9.3-.1z"/><path id="XMLID_221_" class="st9" d="M-735.5 680.1h9.3c.1.8.1 1.5.1 2.3v27.9c0 3.5-.8 4.3-4.2 4.3H-745c-2.2 0-3.4-1-3.4-3.1v-30.6c0-.2.1-.4.3-.8h9.1v26.4c0 .6-.2 1.2 0 1.7.4.8 1.1 1.5 1.6 2.3.6-.8 1.7-1.5 1.8-2.3.2-5 .1-9.9.1-14.9v-13.2z"/><path id="XMLID_218_" class="st9" d="M-662.2 714.5h-9.1v-8.4h-3.4v8.3h-9.2c-.1-.7-.2-1.5-.2-2.2v-27.7c0-3.8.7-4.5 4.5-4.5h14.2c2.3 0 3.5 1.1 3.5 3.3v30.5c-.1.2-.2.4-.3.7zm-9.2-12.9c0-5.4.1-10.5-.1-15.6 0-.7-1-1.4-1.5-2.1-.6.5-1.7 1-1.7 1.6-.1 5.3-.1 10.7-.1 16.1h3.4z"/></g><g id="layer1_1_" transform="translate(-193.43 -307.55)"><g id="g3003"><path id="path2425" class="st9" d="M-707.1 909c-.7 1.3-1.9 3.2-3 4.3h-89.2c-.6-.9-2.2-2.9-2.9-4.3h95.1m-6.6 8.9c-1.1 1.6-2.8 3-4.6 4h-73.1c-1.5-1-2.9-2.5-4.2-4h81.9m-10.1 8.2c-7.9 5.9-16.5 8.9-23.1 9.3 0-2.4 0-5.8.7-9.3h22.4m25-46.2c.7 7.2-1.7 16-6.1 24.9h-32.9c1.2-2.1 2.8-4.1 4.5-6.1 9.7-11.2 24.3-18.1 34.5-18.8m-63.7 55.5c-6.3-.4-15-3.4-23-9.3h22.6c.5 3.6.5 6.9.4 9.3m7.9.7c-2.5-2.4-4.8-5.8-7.1-10h14.1c-2.2 4.2-4.7 7.6-7 10m-16.8-31.3h-33c-4.4-8.9-6.7-17.7-6-24.9 10.1.6 24.9 7.6 34.4 18.7 1.7 2.1 3.4 4.1 4.6 6.2m31 0h-28.4c-.4-2.5-.4-5-.4-7.9 0-15.6 6.9-31.7 14.6-38.9 7.7 7.2 14.7 23.3 14.7 38.9-.1 2.9-.3 5.4-.5 7.9"/><path id="path2447" class="st9" d="M-701.2 941.8c1.3 0 2.4 1.1 2.4 2.6 0 1.3-1.1 2.4-2.4 2.4-1.3 0-2.4-1.1-2.4-2.4 0-1.5 1.1-2.6 2.4-2.6zm0 .3c-1.2 0-2.1 1-2.1 2.2 0 1.1.9 2.1 2.1 2.1 1.1 0 2.1-1 2.1-2.1 0-1.2-1-2.2-2.1-2.2zm.6 2.2c.1 0 .4.1.4.6v.8h-.4v-.3c0-.6-.1-.8-.4-.8h-.6v1.1h-.4v-2.8h.9c.6 0 1 .3 1 .8-.1.3-.3.6-.5.6zm-1-1v.8h.4c.2 0 .6-.1.6-.3 0-.2-.2-.4-.4-.4h-.6"/><path id="path2449" class="st9" d="M-707.2 967.4c4.7 0 8.6-1.9 8.6-6.5 0-2.7-1.9-4.4-4.9-5.2-3.1-.8-7.1-.6-7.1-2.7.2-1.3 1.4-1.7 3.3-1.7 2.9 0 3 1.6 3.1 2.6h4.8c-.3-3.7-3.3-6.2-8.1-6.2-5 0-7.9 2.7-7.9 6.1 0 2 1 3.8 2.7 4.7 1.2.6 2.9 1 4.9 1.3 2.1.2 4 .4 4.1 1.9 0 1-1 2.2-3.2 2.2-3.2 0-3.9-1.8-3.9-3h-5c0 3.9 3.3 6.5 8.6 6.5"/><path id="path2451" class="st9" d="M-728.1 967.4c2.1 0 4-.7 5.6-1.7v1.2h4.8v-19.1h-4.8v1.4c-1.6-1.1-3.4-1.7-5.6-1.7-5.4 0-10 4.3-10 9.9 0 5.6 4.6 10 10 10zm-5.3-9.8c0-3 2.5-5.6 5.5-5.6 2.9 0 5.3 2.5 5.3 5.6 0 2.9-2.4 5.4-5.3 5.4s-5.5-2.6-5.5-5.4"/><path id="path2453" class="st9" d="M-744.3 941.3v8c-1.7-1.1-3.5-1.7-5.7-1.7-5.4 0-9.9 4.3-9.9 9.9 0 5.4 4.4 9.9 9.9 9.9 2.1 0 4.1-.7 5.7-1.7v1.2h4.7v-25.7l-4.7.1zm-11 16.3c0-3 2.5-5.6 5.4-5.6 3 0 5.6 2.5 5.6 5.6 0 2.9-2.5 5.4-5.6 5.4-2.8 0-5.4-2.6-5.4-5.4"/><path id="path2455" class="st9" d="M-766.5 967h4.7v-19.1h-4.7V967zm0-20.9h4.7v-4.8h-4.7v4.8"/><path id="path2457" class="st9" d="M-779.3 967.4c2.1 0 4-.7 5.7-1.7v1.2h4.8v-25.7h-4.8v8c-1.7-1.1-3.5-1.7-5.7-1.7-5.4 0-10 4.3-10 9.9.1 5.6 4.6 10 10 10zm-5.4-9.8c0-3 2.5-5.6 5.7-5.6 2.9 0 5.4 2.5 5.4 5.6 0 2.9-2.5 5.4-5.4 5.4-3.2 0-5.7-2.6-5.7-5.4"/><path id="path2459" class="st9" d="M-801.3 967.4c2.2 0 4.1-.7 5.8-1.7v1.2h4.7v-19.1h-4.7v1.4c-1.7-1.1-3.7-1.7-5.8-1.7-5.4 0-9.9 4.3-9.9 9.9.1 5.6 4.5 10 9.9 10zm-5.3-9.8c0-3 2.5-5.6 5.4-5.6 3.1 0 5.7 2.5 5.7 5.6 0 2.9-2.5 5.4-5.7 5.4-2.8 0-5.4-2.6-5.4-5.4"/></g></g><g id="XMLID_199_"><path id="XMLID_213_" class="st9" d="M-778.3 771h10.4c4.7 0 8.3 2.1 10.8 6.1 1.3 2 1.9 4.2 2.3 6.5.4 2 .4 4 .4 6v13.8c0 3.2-.6 6.4-2 9.3-.9 2.1-2.2 3.9-4.1 5.2-1.9 1.3-4 1.8-6.3 1.8-3.7 0-7.3 0-11-.1-.5 0-.5 0-.5-.5V771zm9.1 7.6v33.5c.2 0 .4.1.6.1 1.8 0 3.2-.8 4-2.4.7-1.4 1-2.8 1-4.3v-20c0-1.5-.3-2.9-1-4.3-.9-2.1-2.3-2.9-4.6-2.6z"/><path id="XMLID_212_" class="st9" d="M-713.9 805.8h8.1c.1.8.1 1.5.2 2.2.1 1.1.3 2.1.8 3.1.4.8.9 1.5 1.9 1.7.5.1 1 0 1.5-.1.7-.3 1.4-.7 2-1.1.1-.1.2-.2.3-.4.9-1.7 1-3.4.3-5.2-.7-1.7-1.8-3.1-3.2-4.4-1.1-1.1-2.4-2-3.7-2.9-1.9-1.3-3.5-2.9-4.9-4.7-1.9-2.5-3.2-5.3-3.7-8.5-.2-1.3-.3-2.6-.1-3.9.1-1 .1-1.9.3-2.9.6-3 1.9-5.6 4.6-7.2 1.5-1 3.3-1.4 5.1-1.6 1.7-.2 3.5-.1 5.2.4 3 .9 4.9 2.9 6.2 5.7.9 2.1 1.4 4.2 1.5 6.5v2.3h-7.7c-.1-.7-.1-1.4-.2-2-.2-1.2-.4-2.4-1-3.5-.9-1.8-2.3-2.2-4-1-1.1.8-1.5 1.9-1.6 3.1-.2 1.8.6 3.4 1.6 4.8 1.5 2.2 3.4 4.1 5.5 5.6 2.6 1.8 4.6 4.1 6.2 6.8 1.8 3.1 2.9 6.4 2.7 10-.1 3-.9 5.8-2.9 8.1-1.5 1.7-3.4 2.8-5.5 3.4-2.4.7-4.7.8-7.1.2-3.1-.7-5.2-2.7-6.5-5.5-.9-1.8-1.3-3.8-1.5-5.8-.1-1-.1-2-.1-2.9-.4-.1-.3-.2-.3-.3z"/><path id="XMLID_211_" class="st9" d="M-678.5 799.1v13.1h11.5v7.6h-19.9c-.5 0-.5 0-.5-.5 0-6.2-.1-12.4-.1-18.7 0-6.2-.1-12.4-.1-18.6v-11.1h20.3v7.5c0 .4-.1.4-.5.4h-10.6v12.1h8.2v8.1c-2.7.1-5.5.1-8.3.1z"/><path id="XMLID_210_" class="st9" d="M-736.5 819.5V771h20.2v7.7h-11v12.1h7.9v7.4c0 .4-.1.4-.4.4h-7.6v13.5h11.5v6.8c0 .3-.1.4-.4.4-6.6 0-13.2 0-19.8.1-.1.1-.3.1-.4.1z"/><path id="XMLID_209_" class="st9" d="M-653.9 812.2h9.3v7.3c0 .4-.1.4-.4.4h-17.4c-.4 0-.5-.1-.5-.5V771h8.9c.1 13.8.1 27.5.1 41.2z"/><path id="XMLID_208_" class="st9" d="M-741.1 819.5h-8.5c-.4 0-.5-.1-.5-.5v-47.7c0-.3 0-.4.4-.4h8.5c.1 16.3.1 32.4.1 48.6z"/><path id="XMLID_204_" class="st9" d="M-647.1 770.7c1.5 0 2.7 1.2 2.7 2.7 0 1.5-1.2 2.7-2.7 2.7-1.5 0-2.7-1.2-2.7-2.7 0-1.5 1.2-2.7 2.7-2.7zm2.1 2.7c0-1.1-.9-2-2-2.1-1.1 0-2.1.9-2.1 2s.9 2 2 2.1c1.1 0 2-.9 2.1-2z"/><path id="XMLID_201_" class="st9" d="M-645.9 774.8c-.4.1-.5 0-.6-.3 0-.2-.1-.3-.1-.5-.1-.3-.3-.5-.6-.5-.2 0-.3 0-.3.3v.8c0 .3-.1.4-.4.3v-3c.4-.1.9-.2 1.3 0 .3.1.5.3.6.7.1.4-.1.7-.4.8.1.4.3.9.5 1.4zm-1.6-1.7h.5c.3 0 .5-.3.5-.6s-.3-.5-.7-.5c-.4 0-.3.3-.3.5v.6z"/></g><g id="XMLID_216_"><path id="XMLID_313_" class="st9" d="M-430.4 551.9c0 6.1-4.8 10.9-10.8 10.9-6 0-10.7-4.8-10.7-11 0-6.3 4.6-11 10.7-11s10.8 4.9 10.8 11.1zm-5.3-.1c0-3.4-2.3-5.9-5.4-5.9-3.1 0-5.6 2.7-5.6 6 0 3.4 2.6 6.2 5.7 6.2 3-.2 5.4-2.9 5.3-6.3z"/><path id="XMLID_312_" class="st9" d="M-381.2 554.1v3.6h9.4v2.5c0 1.6-.8 2.4-2.3 2.4-4.1.1-8.3 0-12.5 0v-21.5h14.8c0 1.1.2 2.4-.1 3.5-.2.6-1.2 1.3-1.9 1.4-1.8.2-3.7.1-5.6.1h-1.8v3.1h7.6v5c-2.5-.1-5-.1-7.6-.1z"/><path id="XMLID_309_" class="st9" d="M-472.3 562.6c-1.6 0-3 .1-4.5 0-.4 0-.8-.6-1-1-.6-1.2-.7-3-1.6-3.6-.9-.6-2.6-.2-4-.2h-.3c-3.2 0-3.2 0-4.4 3-.5 1.2-1.2 2-2.7 1.9-1-.1-2.1 0-3.3 0 .2-.6.2-1 .4-1.4l6.9-18.9c.4-1 .8-1.3 1.9-1.3 7 .1 5.5-.9 7.6 5.4 1.6 4.9 3.1 9.8 4.7 14.8.1.3.2.7.3 1.3zm-8.1-9.4c-.9-2.3-1.7-4.4-2.7-7-.9 2.6-1.7 4.7-2.5 7h5.2z"/><path id="XMLID_308_" class="st9" d="M-427.9 559.4c.3-.6.6-1.2 1-1.8 1-1.5 1.6-1.5 3.3-.9 1.9.6 3.8 1 5.8 1.3.6.1 1.3-.7 2-1-.5-.7-.8-1.6-1.4-2-1.3-.7-2.8-1-4.1-1.5-1.1-.4-2.3-.8-3.3-1.4-3.6-2.1-3.9-6.4-.6-9.1 2.7-2.2 5.9-2.3 9.2-1.8 1.7.2 3.3.9 5.1 1.5-.3.9-.6 1.5-.8 2.1-.5 1.5-1.5 1.7-3 1.4-1.7-.4-3.5-.5-5.3-.5-.6 0-1.1.8-1.7 1.3.5.5.8 1.3 1.4 1.6 2.2 1 4.7 1.6 6.8 2.6 3.3 1.6 4.4 4.9 2.7 7.8-.6.9-1.4 1.8-2.4 2.4-4.1 2.6-11.2 1.7-14.7-2z"/><path id="XMLID_307_" class="st9" d="M-453.3 542c-.2.8-.2 1.3-.4 1.8-.6 2.4-1 2.6-3.4 2.1-4.7-1-8.2 1.4-8.4 5.7-.2 4.1 2.5 6.8 6.6 6.7.5 0 1.1 0 1.6-.2 2.7-.9 3.1.2 3.7 2.4.3 1.1 0 1.4-1 1.7-4.8 1.4-9.4 1.3-13.4-2.2-3.5-3.1-4.4-8.3-2.5-12.7 1.9-4.2 6.6-6.9 11.5-6.4 2 .2 3.8.7 5.7 1.1z"/><path id="XMLID_306_" class="st9" d="M-396.5 546v16.5h-5.4V546h-6.4c-.1-.3-.2-.5-.2-.6-.2-4.3-.1-4.4 4.2-4.4h14.3c0 1.2.1 2.4 0 3.5s-1 1.5-2 1.5h-4.5z"/><path id="XMLID_305_" class="st9" d="M-504.5 557.7h5.6c2.1 0 2.4.4 2.4 2.5v2.2h-13.4v-21.3c.1 0 .1-.1.2-.1 5.5-.3 5.2.1 5.2 4.8v11.9z"/></g><g id="XMLID_217_"><path id="XMLID_241_" class="st9" d="M-429 732.7v.2c.1-.1.1-.2 0-.2zm-57.7 50.3c.3.2.5.3.8.4.3.1.5.1.8.1.9 0 1.8-.5 2.4-1.2.5-.6.7-1.4.5-2.2-.1-.8-.5-1.5-1.1-1.9-.3-.2-.5-.3-.8-.4-.3-.1-.5-.1-.8-.1-.9 0-1.8.5-2.3 1.2-1 1.3-.8 3.2.5 4.1zm94.4 8.1c.3.2.5.3.8.4.3.1.5.1.8.1.9 0 1.8-.5 2.3-1.2.5-.6.7-1.4.5-2.2-.1-.8-.5-1.5-1.1-1.9-.3-.2-.5-.3-.8-.4-.3-.1-.5-.1-.8-.1-.9 0-1.8.5-2.3 1.2-.9 1.2-.6 3.1.6 4.1zm-21.7 35.4c-2-.4-2.4-.8-2.4-1.6 0-.9.7-1.6 2.2-1.6s2.2.8 2.2 1.9h1.2c0-1.9-1.3-3-3.4-3s-3.4 1.1-3.4 2.7c0 1.7 1.2 2.4 3.4 2.7 2.1.4 2.5.9 2.5 1.7 0 1.1-.8 1.8-2.5 1.8-1.5 0-2.5-.8-2.5-2.1h-1.2c0 2 1.5 3.3 3.7 3.3s3.7-1 3.7-2.9c-.1-1.9-1.4-2.5-3.5-2.9zm-15.2-4.1h1.2v9.7h-1.2v-9.7zm-47.2 0h-4.1v9.7h1.2v-3.8h2.9c2 0 3.1-1.2 3.1-2.9 0-1.8-1.1-3-3.1-3zm0 4.8h-2.9v-3.6h2.9c1.1 0 2 .5 2 1.8-.1 1.2-.9 1.8-2 1.8z"/><path id="XMLID_233_" class="st9" d="M-388.9 805.8l-.3.3c-1.7 2.1-3.9 3.6-5.1 3.6-.2 0-.3 0-.5-.1-.7-.4-.9-.8-.2-2.5.3-.6 4.8-13.1 4.8-13.2l.1-.4h-4.6l-.1.2c0 .1-4.3 11.8-5 13l-.1.2c-.1.1-.1.2-.2.3-1.7 1.9-3.4 2.6-4.5 2.6h-.2c-.3 0-.6-.1-.8-.2-.7-.5-.7-1.1 0-2.8.3-.6 7.7-20.5 7.7-20.7l.2-.5h-4.6l-3.8 10.4c-.4-.7-1.1-1.3-1.9-1.9-1.1-.7-2.4-1.1-3.9-1.1-4 0-7.8 2.7-9.8 6.9-1.1 2.4-1.6 4.4-1.5 6.2v.7c-1.6 1.8-3.4 3-4.5 3-.3 0-.6-.1-.8-.3-.7-.5-.6-1.2 0-2.8.3-.6 4.7-12.6 4.7-12.8l.2-.5h-4.5l-.9 2.4c-.4-.7-1.1-1.3-1.9-1.9-1.1-.7-2.4-1.1-3.9-1.1-4 0-7.8 2.7-9.8 6.9-.8 1.6-1.2 3.1-1.4 4.4-1 .9-2.4 2-3.5 2.9-1.3 1-4 2.6-6.9 2.6-.7 0-1.3-.1-1.9-.3-.8-.2-1.5-.8-1.8-1.6-.7-1.4-.5-3.6.4-5.8 1.2-2.9 3.5-4.7 5.9-4.8h.3c2.2 0 3.3 1.9 3.3 3.1 0 .3 0 .3 1.3.3h1.9c1.2 0 1.2 0 1.3-.2l.1-.2h-.1c-.1-2.3-1.8-5.2-3.8-6.3-1.3-.7-2.6-1-3.9-1-4 0-7.7 2.6-9.7 6.9-1.1 2.4-1.6 4.8-1.4 6.9-1.6 1.8-3.3 2.9-4.4 2.9-.3 0-.6-.1-.8-.3-.7-.5-.6-1.2 0-2.8.2-.5 3-8 4.6-12.5l.3-.8h-4.5l-.9 2.4c-.4-.7-1.1-1.3-1.9-1.9-1.1-.7-2.4-1.1-3.9-1.1-4 0-7.8 2.7-9.8 6.9-.9 1.9-1.4 3.5-1.5 5h-.2c-1.4.1-3.4.3-4.3.4.1-.2.2-.6.4-1.1.7-2.1 2.1-5.9 3.3-9l3.7-9.8h-4.4l-13.9 10.8 2.6 3.4 8.2-6.1-4.8 13.3c-4.9 1-9.5 2.7-13.1 5-3.6 2.3-6.4 5.2-8 8.3-1.6 3.1-1.8 6.2-.7 8.6 1.2 2.7 3.6 4.2 6.6 4.2 2.4 0 4.9-1 7.1-2.7 4-3.2 7.9-10 11.2-19.7 0-.1.1-.2.1-.3 1.3-.2 3.1-.5 4.7-.7.1 0 .2-.2.3-.5.2-.4.4-1.2 1-2.7v.4c.1 4.3 2.9 6.7 4.5 7.3 1.1.5 2.3.7 3.6.7 2.2 0 4.4-.8 6-2.3.3.4 1 1.2 2.2 1.7.6.3 1.3.4 2 .4 1.9 0 4.1-1 6.1-2.8.8 1 1.8 1.8 2.9 2.3 1 .4 2.2.7 3.5.7 3.4 0 6.4-1.5 7.6-2.1 1.3-.7 2.7-1.6 3.9-2.6.9 2.1 2.5 3.5 3.8 4 1.1.5 2.3.7 3.5.7 2.2 0 4.4-.8 6-2.3.3.4 1 1.2 2.2 1.7.6.3 1.3.4 2 .4 2 0 4.2-1.1 6.2-3 .8 1.1 1.8 1.9 2.8 2.4 1.1.5 2.3.7 3.6.7 2.2 0 4.4-.8 6-2.3.1.1.2.3.4.5.6.6 1.2 1.1 1.8 1.4.6.2 1.3.4 2.1.4h.1c1.9 0 4-.8 5.9-2.3.5.7 1.6 1.8 3.2 2.1.4.1.8.1 1.2.1 2.7 0 5.4-1.7 8.2-5.1l.2-.2-2.9-2.9zm-115.9 17.9s-3.2 4.4-6.6 4.4c-1.3 0-2.3-.5-2.8-1.4-.8-1.3-.6-3.1.4-5.2 3.7-7.2 12.5-9.6 15.3-10.4h.1c-.6 1.8-3 8.2-6.4 12.6zm30.9-17.5c-1.1 2.3-3.2 3.8-5.3 3.8-.6 0-1.1-.1-1.6-.4-.9-.3-1.5-1-1.9-1.9-.6-1.4-.3-3.4.7-5.7s3.3-4.7 5.7-4.7h.1c.6 0 1.1.1 1.5.3.8.4 1.4 1.1 1.8 2.2.3 1.6 0 4.2-1 6.4zm41.4 0c-1.1 2.3-3.2 3.8-5.3 3.8-.6 0-1.1-.1-1.6-.4-.9-.3-1.6-1-1.9-1.9-.6-1.4-.3-3.4.7-5.7s3.3-4.7 5.7-4.7h.1c.6 0 1.1.1 1.5.3.8.4 1.4 1.1 1.8 2.2.4 1.6.1 4.2-1 6.4zm22.8 0c-1.1 2.3-3.2 3.8-5.3 3.8-.6 0-1.1-.1-1.6-.4-.9-.3-1.6-1-1.9-1.9-.6-1.4-.4-3.4.6-5.6 1-2.3 3.1-4.7 5.9-4.7.5 0 1 .1 1.5.3.8.4 1.4 1.1 1.8 2.2.4 1.5 0 4.1-1 6.3zm-29.9 19.2c0-1.7-1.2-2.9-3.1-2.9h-4.3v9.7h1.2v-3.8h3.1c1.5 0 1.6.8 1.6 1.5v2.4h1.2v-2.4c0-1-.3-1.7-1-2 .8-.7 1.3-1.5 1.3-2.5zm-3.1 1.8h-3.2v-3.6h3.1c1.2 0 1.9.6 1.9 1.8.1 1.1-.7 1.8-1.8 1.8z"/><path id="XMLID_227_" class="st9" d="M-461.6 822.4l-3.7 9.7h1.3l1.1-2.8h3.9l1 2.8h1.3l-3.6-9.7h-1.3zm-1 5.8l1.6-4.3 1.6 4.3h-3.2zm18.7-93s-2.9-1.8-5.7-2.4c-.1 0-.2 0-.1.2.2.5 2.3 4.6 3.7 9.2h13.4c1.4-4.6 3.5-8.8 3.7-9.2v-.3h-.1c-2.9.6-5.7 2.4-5.7 2.4-2.1-3.5-4.3-5.6-4.5-5.7h-.2c-.2.2-2.4 2.3-4.5 5.8zm5.5 22.2l4.6-12.1H-445l1 2.6h6.6l-3.6 9.8h-.1c-11.1 1.7-16.8 8.4-16.7 13.3 0 .7.1 1.4.4 2 .7 1.6 1.8 2.5 3.2 2.9 1 .3 2.1.3 3.1 0 1.1-.3 2.3-.8 3.2-1.7 4.6-3.7 8.6-14.3 8.6-14.3 1.2-.1 3.1-.3 3.1-.3l.9-2.4c-1.4.1-3 .2-3.1.2zm-8.9 12.6c-4.4 5.7-10.4 3.3-7.4-2 3.6-6.4 12.4-7.7 12.7-7.8.1.1-2.1 5.7-5.3 9.8z"/></g><g id="XMLID_198_"><path id="XMLID_257_" class="st9" d="M-500.3 681.6c-4.4 0-8-1.3-10.5-3.9-2.4-2.5-3.8-6.2-3.8-10.5-.1-3.7 1.3-7.3 3.7-10 1.2-1.3 2.7-2.3 4.4-3 1.8-.7 3.7-1 5.6-1 5.3 0 8.5 1.5 11.1 4.8v-6.4c-3.4-2.3-7.4-3.4-11.5-3.3-2.6 0-5.3.4-7.8 1.2-2.2.8-4.2 2-5.9 3.7-3.7 3.7-5.7 8.7-5.6 14-.2 5.4 1.9 10.5 5.7 14.3 3.5 3.3 8.3 5 13.9 5 5 0 8.7-1 12.1-3.3v-6.3c-2.6 3.2-6.3 4.7-11.4 4.7z"/><path id="XMLID_256_" class="st9" d="M-460.3 661.6c-1.7-1.6-4-2.5-6.3-2.3-3.8 0-7.5 1-9.4 4.5v-17.5l-5.6 1.9V686h5.6v-11.7c0-6.2 3.4-10.5 7.7-10.5 1.4-.2 2.7.4 3.6 1.5.8 1.3 1.2 2.8 1.1 4.4V686h5.6v-17.5c.2-2.5-.6-5-2.3-6.9z"/><path id="XMLID_253_" class="st9" d="M-427.1 679.8v-20.7l-5 1.8v2.9c-1.4-2.5-3.3-4.7-8-4.7-3.2 0-6.2 1.4-8.2 3.8-2.2 2.9-3.3 6.5-3.2 10.1-.1 3.5 1 7 3.1 9.8 2 2.3 4.9 3.7 7.9 3.6 3.4.1 6.7-1.7 8.4-4.7 0 1.2.4 3.3 1.8 4.2h5.5l-1-1.1c-.9-1.4-1.4-3.2-1.3-5zm-12.1 2.3c-2 .1-3.9-.8-5.1-2.4-1.3-1.9-2-4.1-1.8-6.4-.1-2.4.5-4.7 1.8-6.6 1.2-1.6 3.1-2.5 5.2-2.4 1.9 0 3.7.9 4.9 2.4 1.2 1.5 1.4 3.8 1.4 6.6-.1 5.2-2.5 8.8-6.4 8.8z"/><path id="XMLID_252_" class="st9" d="M-406.1 659.2c-3.2 0-6.1 1.7-7.7 4.5v-4.5l-5.2 1.7v25h5.2v-13.6c0-4.6 2.2-7.6 6.8-7.6.9 0 1.8.1 2.7.3.4.1.7.2 1 .4v-5.6c-.9-.4-1.8-.6-2.8-.6z"/><path id="XMLID_251_" class="st9" d="M-392 679.4v-33.2l-5 1.7v31.7c0 2.2-.1 4.5 2 6.4h6.6c-3.1-1.3-3.6-3.8-3.6-6.6z"/><ellipse id="XMLID_250_" class="st9" cx="-381.2" cy="654.4" rx="3" ry="3.2"/><path id="XMLID_249_" class="st9" d="M-378.6 679.4V660l-5.2 1.7v17.9c0 2.2-.1 4.5 2 6.4h6.7c-3-1.3-3.5-3.8-3.5-6.6z"/></g><g id="XMLID_494_"><g id="形状_1_3_"><g id="形状_1"><g id="XMLID_98_"><path id="XMLID_99_" class="st10" d="M328 501.2l-3.1 19.2h5l3.1-19.2h-5zm-7.3 0l-4.8 13.2-.6-2.8-.1-.6c-.6-1.2-1.9-3.6-4.4-5.6-.7-.6-1.5-1.1-2.2-1.5l4.3 16.6h5.2l7.9-19.2h-5.3v-.1zm19.5 5.3c0-2.2 4.9-1.9 7-.7l.7-4.1s-2.2-.8-4.5-.8c-2.5 0-8.4 1.1-8.4 6.4 0 5 6.9 5 6.9 7.6 0 2.6-6.2 2.1-8.2.5l-.7 4.3s2.2 1.1 5.6 1.1c3.4 0 8.5-1.8 8.5-6.6.1-5-6.9-5.5-6.9-7.7zm20.4-5.3h-4c-1.9 0-2.3 1.4-2.3 1.4l-7.4 17.8h5.2l1-2.8h6.3l.6 2.8h4.6l-4-19.2zm-6.1 12.4l2.6-7.2 1.5 7.2h-4.1z"/></g></g></g><g id="形状_1_2_"><g id="形状_1_1_"><g id="XMLID_96_"><path id="XMLID_87_" class="st10" d="M313.8 503s-.2-1.7-2.4-1.7h-8l-.1.3s3.9.8 7.6 3.7c3.5 2.8 4.7 6.3 4.7 6.3l-1.8-8.6z"/></g></g></g></g><g id="XMLID_285_"><g id="XMLID_293_"><g id="XMLID_333_"><path id="XMLID_152_" class="st10" d="M347.3 551.6c0-7.3-5.9-13.3-13.3-13.3-3.2 0-6.1 1.1-8.4 3 1.7 1.7 3.1 3.7 3.7 6.1h-1.1c-.7-2.1-1.9-4-3.5-5.5-1.6 1.5-2.7 3.4-3.5 5.5h-1.1c.7-2.4 2-4.5 3.7-6.1-2.3-1.9-5.1-3-8.3-3-7.3 0-13.2 6-13.2 13.3 0 7.3 5.9 13.3 13.3 13.3 3.2 0 6.1-1.2 8.3-3-1.7-1.7-3-3.7-3.7-6.1h1.1c.7 2.1 1.9 4 3.5 5.5 1.6-1.5 2.8-3.4 3.5-5.5h1.1c-.7 2.4-2 4.5-3.7 6.1 2.3 1.9 5.2 3 8.4 3 7.3 0 13.2-6 13.2-13.3"/></g><g id="XMLID_331_"><path id="XMLID_151_" class="st11" d="M337.6 554.7l.9-4.9h1.2l.1.5c.2-.2.6-.5 1.3-.5l-.4 1.3c-.4 0-.9-.1-1.4 1.4l-.4 2.2h-1.3"/></g><g id="XMLID_329_"><path id="XMLID_150_" class="st11" d="M319.9 548.6h1.3l-.3 1.3h.7l-.2 1h-.6l-.4 1.9c-.1.4 0 .7.7.6l-.1 1.1c-.3.2-.6.2-1 .2-.3 0-1.3-.2-1.1-1.5l1-4.6"/></g><g id="XMLID_327_"><path id="XMLID_147_" class="st11" d="M325.7 552.6c.1-.8.5-2.7-1.8-2.7-2.2 0-2.5 2.2-2.5 2.5-.1.3-.1 2.5 2.2 2.5.6 0 1.4-.1 1.7-.2l.2-1c-.2.1-.9.1-1.5.1-.5 0-1.4 0-1.2-1.1h2.9"/></g><g id="XMLID_325_"><path id="XMLID_145_" class="st11" d="M318.6 551l.3-1c-.6-.2-1.2-.2-1.3-.2-.2 0-1.8 0-2 1.2-.2.9.1 1.3.4 1.4.5.2.8.4 1.1.6.4.1.3.7-.1.7-.2 0-1.1.1-1.7-.1l-.2 1c.6.1 1.1.1 1.6.1.4 0 1.9.1 2.2-1.4.1-.7-.2-1-.4-1.2-.3-.1-.6-.4-.9-.5-.3-.1-.5-.6 0-.7 0 0 .7 0 1 .1"/></g><g id="XMLID_323_"><path id="XMLID_144_" class="st11" d="M310 554.7l1.1-5.9h-2.2l-1.6 3.6-.3-3.6h-2.1l-1.1 5.9h1.3l.8-4.2.4 4.2h1.2l1.9-4.2-.8 4.2h1.4"/></g><g id="XMLID_321_"><path id="XMLID_139_" class="st11" d="M311.5 550l-.2 1.1c.4 0 1.2-.1 1.7-.1s1-.1.8.6c-.4 0-2.7-.4-3.1 1.7-.1 1 .7 1.5 1.4 1.5s.9-.1 1.1-.3l.1.3h1.2l.5-2.7c.1-.6.4-2.2-1.9-2.2-.3-.1-.8-.1-1.6.1"/></g><g id="XMLID_319_"><path id="XMLID_138_" class="st11" d="M333 550.2c-.4-.2-.6-.2-1-.2s-1.4.4-1.6 1.6c-.2 1.4.7 2.1 2.1 1.7l.4 1.2c-.4.2-.9.3-1.6.3-1.4 0-2.9-1.2-2.2-3.7.5-1.8 2.1-2.5 3-2.5 1.1.1 1.5.4 1.8.8l-.9.8"/></g><g id="XMLID_317_"><path id="XMLID_137_" class="st11" d="M344.4 550.4c-.3-.2-.4-.6-1-.6-.7 0-1.9-.1-2.5 2.1-.4 1.5.4 2.8 1.4 2.8.4 0 .9-.2 1.2-.4l.1.4h1.4l1.2-6.2h-1.4l-.4 1.9"/></g><g id="XMLID_304_"><path id="XMLID_107_" class="st11" d="M334 550l-.2 1.1c.4 0 1.2-.1 1.7-.1s.9-.1.8.6c-.4 0-2.7-.4-3.1 1.7-.1 1 .7 1.5 1.4 1.5s.9-.1 1.1-.3l.1.3h1.2l.5-2.7c.1-.6.4-2.2-1.9-2.2-.3-.1-.8-.1-1.6.1"/></g><g id="XMLID_302_"><path id="XMLID_106_" class="st10" d="M322.9 551.6h1.7c.1-.5-.1-.9-.6-.9-.6.1-1 .3-1.1.9"/></g><g id="XMLID_300_"><path id="XMLID_105_" class="st10" d="M313.5 552.6c-.2 0-.7-.1-1.2.1-.4.3-.6.8-.1.9.4.1 1-.1 1.2-.6l.1-.4"/></g><g id="XMLID_298_"><path id="XMLID_104_" class="st10" d="M343.9 552.4c.1-.4.1-1-.1-1.2-.4-.6-1.4-.1-1.7.9-.2.7.2 1.2.6 1.2.6 0 .9-.3 1.2-.9"/></g><g id="XMLID_296_"><path id="XMLID_103_" class="st10" d="M336.1 552.6c-.2 0-.7-.1-1.2.1-.4.3-.6.8-.1.9.4.1 1.1-.1 1.2-.6l.1-.4"/></g><g id="XMLID_294_"><path id="XMLID_102_" class="st11" d="M325.7 554.7l.9-4.8h1.2l.1.5c.2-.2.6-.5 1.3-.5l-.4 1.3c-.3 0-.9-.1-1.4 1.4l-.4 2.2-1.3-.1"/></g></g><g id="XMLID_286_"><g id="XMLID_291_"><path id="XMLID_101_" class="st10" d="M315.9 538.4c-5.8 0-10.8 3.8-12.5 9.1h17.2c.7-2.4 2-4.5 3.7-6.1-2.4-1.9-5.3-3-8.4-3z"/></g><g id="XMLID_289_"><path id="XMLID_100_" class="st10" d="M325 542c-1.6 1.5-2.7 3.3-3.5 5.5h6.9c-.7-2.1-1.9-4-3.4-5.5z"/></g><g id="XMLID_287_"><path id="XMLID_97_" class="st10" d="M334 538.4c-3.2 0-6.1 1.1-8.4 3 1.7 1.7 3 3.7 3.7 6.1h17.2c-1.6-5.3-6.5-9.1-12.5-9.1z"/></g></g></g><g id="XMLID_326_"><g id="XMLID_358_"><path id="XMLID_359_" class="st10" d="M352.5 585.1h-5.6c-.3 0-.7.3-.8.7l-2.3 14.5c0 .3.2.5.5.5h3c.3 0 .5-.2.5-.5l.7-4.1c0-.3.3-.7.8-.7h1.8c3.8 0 5.9-1.8 6.4-5.4.3-1.5 0-2.8-.7-3.6-1-.9-2.5-1.4-4.3-1.4m.6 5.4c-.3 2-1.8 2-3.3 2h-1l.7-3.8c0-.2.2-.3.5-.3h.3c1 0 2 0 2.5.7.3.1.3.6.3 1.4"/></g><g id="XMLID_354_"><path id="XMLID_355_" class="st10" d="M312.2 585.1h-5.6c-.3 0-.7.3-.8.7l-2.3 14.5c0 .3.2.5.5.5h2.6c.3 0 .7-.3.8-.7l.7-3.9c0-.3.3-.7.8-.7h1.8c3.8 0 5.9-1.8 6.4-5.4.3-1.5 0-2.8-.7-3.6-.9-.9-2.2-1.4-4.2-1.4m.6 5.4c-.3 2-1.8 2-3.3 2h-.8l.7-3.8c0-.2.2-.3.5-.3h.3c1 0 2 0 2.5.7.1.1.3.6.1 1.4"/></g><g id="XMLID_350_"><path id="XMLID_351_" class="st10" d="M329.1 590.4h-2.6c-.2 0-.5.2-.5.3l-.2.8-.2-.3c-.7-.8-1.8-1.2-3.1-1.2-3 0-5.6 2.3-6.1 5.4-.3 1.6.2 3.1 1 4.1.8 1 2 1.3 3.5 1.3 2.5 0 3.8-1.5 3.8-1.5l-.2.8c0 .3.2.5.5.5h2.5c.3 0 .7-.3.8-.7l1.5-9.2c-.2 0-.5-.3-.7-.3m-3.8 5.2c-.3 1.5-1.5 2.6-3.1 2.6-.8 0-1.5-.3-1.8-.7-.3-.5-.5-1.2-.5-2 .2-1.5 1.5-2.6 3-2.6.8 0 1.3.3 1.8.7.5.5.6 1.4.6 2"/></g><g id="XMLID_346_"><path id="XMLID_347_" class="st10" d="M369.2 590.4h-2.6c-.2 0-.5.2-.5.3l-.2.8-.2-.3c-.7-.8-1.8-1.2-3.1-1.2-3 0-5.6 2.3-6.1 5.4-.3 1.6.2 3.1 1 4.1.8 1 2 1.3 3.5 1.3 2.5 0 3.8-1.5 3.8-1.5l-.2.8c0 .3.2.5.5.5h2.5c.3 0 .7-.3.8-.7l1.5-9.2c-.2 0-.3-.3-.7-.3m-3.7 5.2c-.3 1.5-1.5 2.6-3.1 2.6-.8 0-1.5-.3-1.8-.7-.3-.5-.5-1.2-.5-2 .2-1.5 1.5-2.6 3-2.6.8 0 1.3.3 1.8.7.6.5.7 1.4.6 2"/></g><g id="XMLID_328_"><g id="XMLID_344_"><path id="XMLID_332_" class="st10" d="M343.4 590.4h-2.8c-.3 0-.5.2-.7.3l-3.6 5.6-1.6-5.3c-.2-.3-.3-.5-.8-.5h-2.6c-.3 0-.5.3-.5.7l3 8.7-2.8 3.9c-.2.3 0 .8.3.8h2.6c.3 0 .5-.2.7-.3l9-13c.5-.5.2-.9-.2-.9"/></g><g id="XMLID_342_"><path id="XMLID_330_" class="st10" d="M372.4 585.6l-2.3 14.8c0 .3.2.5.5.5h2.3c.3 0 .7-.3.8-.7l2.3-14.5c0-.3-.2-.5-.5-.5h-2.6c-.2-.1-.4.1-.5.4"/></g></g></g><path class="st12" d="M417.8 610.8s-.6-3.1 5.8-3.1c0 0 9.5-2.4 13.9-9.7 4.5-7.4-.4-4.3 14.8-1.3 0 0 1-.1 1 .8-.1.9 1.7 10.3 1.1 12.6 0 0 1.1-.1.4 4.1 0 0-4.5 1.6-19.6 1.1-15.1-.5-17.6-2.6-17.6-2.6s-1.1-.7.2-1.9zm21.2-15.4s2.3.8 4.6-.8"/><path class="st12" d="M453.7 601.7s-10.3 7.1-15.2 7.2c-4.9.2-1.2-4.6-1.2-4.6l1-1.3s-1 4.3 3.4 2.3c4.4-1.9 11.5-5.1 11.5-5.1m-24.1 5.2s1 6.9 5.4 6.8m-16.7-1.4s23.1 3.6 36.6-.7"/><circle class="st13" cx="437" cy="601.6" r=".5"/><circle class="st13" cx="435.7" cy="602.9" r=".5"/><circle class="st13" cx="434.3" cy="604" r=".5"/><circle class="st13" cx="432.6" cy="605.1" r=".5"/><path class="st12" d="M446.8 605.9c.9 1.7 1.4 3.5 1.3 5.5m-2.7-7.7c-2.9-3.9-6.9-6.4-6.9-6.4m15.1.1s3 0 .4 4.5m-16.9-3.3v.1m-18.7 10.7s5.2-.1 7.6.1c1 .1 2.5-.5 4-1.2"/><g id="XMLID_638_"><path id="XMLID_734_" class="st14" d="M20 0c11 0 20 9 20 20s-9 20-20 20S0 31 0 20 9 0 20 0z"/><path id="XMLID_733_" class="st15" d="M15 10.9c0 .1.1.2.1.2.3.6.5 1.1.8 1.7.3-.2.7-.3 1.1-.4 2-.7 4.2-.7 6.2 0 .4.1.7.3 1.1.4.3-.6.5-1.1.8-1.7 0-.1.1-.2.1-.2-3.4-1.4-7-1.4-10.2 0z"/><path id="XMLID_732_" class="st16" d="M16.9 12.5c1.4.7 3.1 1.2 3.1 1.2s1.7-.5 3.1-1.2c-2-.7-4.2-.7-6.2 0z"/><path id="XMLID_731_" class="st17" d="M20 10.5c.1 0 .2-.1.2-.2v-.7c0-1.1-.5-2.2-1.4-3-.4-.4-.6-.9-.6-1.4.1-.9.8-1.6 1.6-1.6.5 0 1 .1 1.3.5.4.3.6.8.6 1.3 0 .1.1.2.2.2s.2-.1.2-.2c0-.6-.3-1.2-.7-1.6-.4-.4-1-.6-1.6-.6-1.1.1-2 .9-2 2 0 .7.2 1.3.7 1.8.8.7 1.2 1.7 1.2 2.7v.6c.1.1.2.2.3.2z"/><path class="st18" d="M20 11.3l9.6 4.2H10.4l9.6-4.2zm-12.3 5c.1.2.3.3.4.3h23.8c.3 0 .5-.2.5-.5 0-.2-.1-.3-.3-.4L20.2 9.1c-.2-.1-.3-.1-.5 0L7.8 15.6c-.2.2-.3.5-.1.7z"/><path id="XMLID_728_" class="st19" d="M2.2 19.5L7.4 25l3-2.4v15c2.8 1.5 6.1 2.4 9.5 2.4 3.4 0 6.7-.9 9.5-2.4v-15l3 2.4 5.2-5.5-6.1-5.8c-.5-.5-1.2-.8-1.9-1l-4.9-.9c0 .3-.1.5-.5.5h-.1C23.8 13.9 22 15 20 15c-2.1 0-3.8-1.2-4.3-2.7-.1 0-.2.1-.2.1-.3 0-.5-.3-.5-.5l-4.8.8c-.7.1-1.4.5-1.9 1l-6.1 5.8z"/><path id="XMLID_727_" class="st17" d="M31 23.8l1.6 1.2 5.2-5.5-1.4-1.3-5.4 5.6z"/><path id="XMLID_726_" class="st20" d="M31 23.8l1.6 1.2 5.2-5.5-1.4-1.3-5.4 5.6z"/><path id="XMLID_725_" class="st20" d="M2.2 19.5L7.4 25 9 23.8l-5.4-5.6-1.4 1.3z"/><path id="XMLID_724_" class="st21" d="M18.7 13.7h2.6v8.5h-2.6v-8.5z"/><path id="XMLID_723_" class="st20" d="M15.5 15.1l2.1 2.3 2.3-3.7s-1.7-.5-3.1-1.2c-.8-.4-1.5-.8-1.8-1.3v-.3l-.3.7c-.5 1.1-.2 2.3.8 3.5z"/><path id="XMLID_722_" class="st20" d="M20 13.7l2.3 3.7 2.1-2.3c1-1.1 1.3-2.3.8-3.5l-.2-.7c0 .1-.1.2-.1.2-.3.4-1 .9-1.8 1.3-1.4.8-3.1 1.3-3.1 1.3z"/><path id="XMLID_721_" class="st20" d="M20 17.8c.4 0 .7.3.7.7 0 .4-.3.7-.7.7-.4 0-.7-.3-.7-.7 0-.4.3-.7.7-.7z"/><path id="XMLID_720_" class="st20" d="M20 20.3c.4 0 .7.3.7.7 0 .4-.3.7-.7.7-.4 0-.7-.3-.7-.7 0-.4.3-.7.7-.7z"/></g><g id="XMLID_641_"><path id="XMLID_744_" class="st22" d="M1296.4 438.8c141.4 0 256 114.6 256 256s-114.6 256-256 256-256-114.6-256-256 114.6-256 256-256z"/><path id="XMLID_743_" class="st23" d="M1333.8 948c97.4-14.3 176.9-83.3 206.3-174.8l-84.8-84.8-92.8 15-215.8 57.6 187.1 187z"/><path id="XMLID_742_" class="st24" d="M1467 724.9h-312.9c-5.2 0-9.5 4.2-9.5 9.5v20.7c0 5.2 4.2 9.5 9.5 9.5h85.3c1.1 0 2.2-.2 3.2-.6l25.2-9.2 25.2 9.2c1 .4 2.1.6 3.2.6H1467c5.2 0 9.5-4.2 9.5-9.5v-20.7c0-5.2-4.2-9.5-9.5-9.5z"/><path id="XMLID_741_" class="st21" d="M1467 724.9h-170.4v39.7H1467c5.2 0 9.5-4.2 9.5-9.5v-20.7c0-5.2-4.2-9.5-9.5-9.5z"/><path id="XMLID_740_" class="st25" d="M1476.5 732.1c-1.3-18.6-16.4-56.3-64.6-65.6-51.7-10-138.7-55.5-139.6-56-3-1.6-6.6-1.4-9.4.4-48.2 30.1-103.6.1-104.1-.2-2.9-1.6-6.5-1.6-9.4.1-2.9 1.7-4.7 4.8-4.7 8.2v113.8c0 5.2 4.2 9.5 9.5 9.5H1467c2.6 0 5.1-1.1 6.9-3 1.8-2 2.8-4.6 2.6-7.2z"/><path id="XMLID_739_" class="st26" d="M1476.5 732.1c-1.3-18.6-16.4-56.3-64.6-65.6-34.8-6.7-85.5-29.5-115.3-43.8v119.5H1467c2.6 0 5.1-1.1 6.9-3 1.8-1.9 2.8-4.5 2.6-7.1z"/><path id="XMLID_738_" class="st27" d="M1322.2 649.9c3.8 0 6.9 3.1 6.9 6.9 0 3.8-3.1 6.9-6.9 6.9-3.8 0-6.9-3.1-6.9-6.9 0-3.8 3.1-6.9 6.9-6.9z"/><path id="XMLID_737_" class="st27" d="M1360.1 662c3.8 0 6.9 3.1 6.9 6.9 0 3.8-3.1 6.9-6.9 6.9-3.8 0-6.9-3.1-6.9-6.9 0-3.8 3.1-6.9 6.9-6.9z"/><path id="XMLID_736_" class="st27" d="M1284.3 631c3.8 0 6.9 3.1 6.9 6.9 0 3.8-3.1 6.9-6.9 6.9-3.8 0-6.9-3.1-6.9-6.9 0-3.8 3.1-6.9 6.9-6.9z"/></g><g id="XMLID_640_"><path class="st28" d="M1236.8 77c-5.3 0-9.6-2.9-9.6-6.4V45c0-3.5 4.3-6.4 9.6-6.4s9.6 2.9 9.6 6.4v25.6c0 3.5-4.3 6.4-9.6 6.4zm-121.6 0c-5.3 0-9.6-2.9-9.6-6.4V45c0-3.5 4.3-6.4 9.6-6.4s9.6 2.9 9.6 6.4v25.6c0 3.5-4.3 6.4-9.6 6.4zm0 0"/><path class="st29" d="M1361.8 230.6H990.6c-3.5 0-6.4 2.9-6.4 6.4v108.8c0 17.6 14.4 32 32 32h320c17.6 0 32-14.4 32-32V237c0-3.6-2.9-6.4-6.4-6.4zm0 0"/><path class="st30" d="M1349 70.6h-345.6c-17.6 0-32 14.4-32 32V214c0 12.9 7.7 24.5 19.7 29.6 52.7 22.4 108.4 35 165.9 37.4h38.7c57.2-2.4 113-14.9 165.6-37.4 12-5.1 19.7-16.7 19.7-29.6V102.6c0-17.7-14.4-32-32-32zm0 0"/><path class="st28" d="M1253 211.4c0-14.1-11.5-25.6-25.6-25.6H1125c-14.1 0-25.6 11.5-25.6 25.6V275c19 3.1 38.2 5.2 57.6 6h38.7c19.3-.8 38.4-2.9 57.3-6v-63.6zm0 0"/><path class="st31" d="M1182.6 301h-12.8c-7.1 0-12.8-5.7-12.8-12.8v-25.6c0-7.1 5.7-12.8 12.8-12.8h12.8c7.1 0 12.8 5.7 12.8 12.8v25.6c0 7-5.8 12.8-12.8 12.8zm0 0"/><path class="st29" d="M1246.6 48c-1.2 0-2.5-.2-3.7-.5-19.2-5.8-42.3-8.8-66.7-8.8-24.4 0-47.5 3.1-66.7 8.8-6.8 2.1-13.9-1.8-15.9-8.6s1.8-13.9 8.6-15.9c21.6-6.5 47.2-9.9 74.1-9.9 26.9 0 52.5 3.4 74.1 9.9 6.8 2 10.6 9.2 8.6 15.9-1.9 5.5-6.9 9.1-12.4 9.1zm0 0"/><path class="st32" d="M1188.8 249.8h-25.6c-3.5 0-6.4 2.9-6.4 6.4V269c0 7.1 5.7 12.8 12.8 12.8h12.8c7.1 0 12.8-5.7 12.8-12.8v-12.8c0-3.6-2.9-6.4-6.4-6.4zm0 0"/></g><g id="XMLID_708_"><defs><path id="XMLID_815_" d="M-152.7 47.3h40v40.1h-40z"/></defs><clipPath id="XMLID_837_"><use xlink:href="#XMLID_815_" overflow="visible"/></clipPath><path class="st33" d="M-112.7 67.3c0-11-9-20-20-20s-20 9-20 20 9 20 20 20c11.1 0 20-8.9 20-20zm0 0"/><path class="st34" d="M-124.6 76.7c0 .3-.2.6-.6.6-.3 0-.6-.2-.6-.6v-1.4c0-.3.2-.6.6-.6.3 0 .6.2.6.6v1.4zm0 0"/><path class="st35" d="M-130.8 63.2c-6.4 0-5.6 13.4-5.6 13.4 0 1.2 1 2.2 2.2 2.2h6.7c1.2 0 2.2-1 2.2-2.2.1 0 1-13.4-5.5-13.4zm0 0"/><path class="st36" d="M-136.4 76.6c0 1.2 1 2.2 2.2 2.2h6.7c1.2 0 2.2-1 2.2-2.2v-2h-11.3c.2 1.1.2 2 .2 2zm0 0"/><path class="st37" d="M-130.8 63.8c-1 0-1.8.4-2.4 1.1h4.8c-.6-.6-1.4-1.1-2.4-1.1zm0 0"/><path class="st36" d="M-133.2 65.3h4.8V65l-.1-.1h-4.7l-.1.1v.3zm0 0"/><path class="st38" d="M-129.5 68.6c0 .7-.6 1.4-1.4 1.4s-1.4-.6-1.4-1.4c0-.7.6-1.4 1.4-1.4s1.4.7 1.4 1.4zm0 6.3c0 .7-.6 1.4-1.4 1.4s-1.4-.6-1.4-1.4.6-1.4 1.4-1.4 1.4.6 1.4 1.4zm0 0"/><path class="st39" d="M-129.9 74.9c0 .5-.4 1-1 1-.5 0-1-.4-1-1 0-.5.4-1 1-1s1 .4 1 1zm0 0"/><path class="st40" d="M-131.4 75.3c-.3-.3-.3-.8 0-1 .3-.3.8-.3 1 0 .4.3-.7 1.3-1 1zm0 0"/><path class="st39" d="M-129.8 68.6c0 .6-.5 1.1-1.1 1.1-.6 0-1.1-.5-1.1-1.1 0-.6.5-1.1 1.1-1.1.7 0 1.1.5 1.1 1.1zm0 0"/><path class="st39" d="M-132.8 52.6h-1.4l.3 1.6h.7c.8 0 1.5.7 1.5 1.5v12.7h1.5V55.3c.1-1.5-1.1-2.7-2.6-2.7zm0 0"/><path id="XMLID_792_" class="st41" d="M-136.8 57.7h1.5v18.1h-1.5z"/><path id="XMLID_791_" class="st42" d="M-136.9 57.7h.8v18.1h-.8z"/><path class="st39" d="M-133.4 52.6h-.7c-1.5 0-2.7 1.2-2.7 2.7v2.5h1.5v-2.1c0-.8.7-1.5 1.5-1.5h.4v-1.6zm0 0"/><path class="st43" d="M-136.5 56.6c0-.1.2-.3.4-.3s.4.1.4.3v.9c0 .1-.8.1-.8 0v-.9zm0 0"/><path class="st39" d="M-136.6 57.2c0-.2.2-.3.5-.3s.5.1.5.3v.2c0 .2-1 .2-1 0v-.2zm1.3 22.9c0 .3-.3.6-.6.6h-.3c-.3 0-.6-.3-.6-.6v-4.3h1.5v4.3zm0 0"/><path class="st34" d="M-131.5 81.2c0 .5-.5 1-1.1 1h-7.1c-.6 0-1.1-.4-1.1-1 0 0 .9-1.8 1.4-1.8h6.4c.6-.1 1.5 1.8 1.5 1.8zm0 0"/><path class="st39" d="M-131.5 81.2c0 .5-9.2.5-9.2 0 0 0 .9-1.8 1.4-1.8h6.4c.5-.1 1.4 1.8 1.4 1.8zm0 0"/><path id="XMLID_778_" class="st44" d="M-131.3 64.6h.9v.1h-.9z"/><path id="XMLID_777_" class="st44" d="M-131.3 65.9h.9v.1h-.9z"/><path id="XMLID_776_" class="st44" d="M-131.3 67.1h.9v.1h-.9z"/><path id="XMLID_775_" class="st44" d="M-131.3 68.4h.9v.1h-.9z"/><path id="XMLID_774_" class="st44" d="M-131.3 63.4h.9v.1h-.9z"/><path id="XMLID_773_" class="st44" d="M-131.3 62.1h.9v.1h-.9z"/><path id="XMLID_772_" class="st44" d="M-131.3 59.6h.9v.1h-.9z"/><path id="XMLID_771_" class="st44" d="M-131.3 60.9h.9v.1h-.9z"/><path id="XMLID_770_" class="st44" d="M-131.3 58.4h.9v.1h-.9z"/><path id="XMLID_769_" class="st44" d="M-131.3 57.1h.9v.1h-.9z"/><path id="XMLID_768_" class="st44" d="M-131.3 55.9h.9v.1h-.9z"/><path class="st44" d="M-131.4 54.8l.9-.4v.1l-.9.3zm-.6-.6l.6-.8.1.1-.7.7zm0 0"/><path id="XMLID_763_" class="st44" d="M-132.8 52.9h.1v.9h-.1z"/></g><g id="XMLID_681_"><path id="XMLID_833_" class="st18" d="M-136-9c11 0 20 9 20 20s-9 20-20 20-20-9-20-20 9-20 20-20z"/><path id="XMLID_832_" class="st21" d="M-145.1 13.3l1.4 4.1 1.4-.4.8-.8-1.7-5-1.9 2.1z"/><path id="XMLID_831_" class="st19" d="M-145.7 14l-.4 4 2.4-.6-1.4-4.1-.6.7z"/><path id="XMLID_830_" class="st19" d="M-143.2 11.2l1.7 5 1.9-2.2-1.7-5-1.9 2.2z"/><path id="XMLID_829_" class="st21" d="M-139.4 6.8l-1.9 2.2 1.7 5 1.9-2.1-1.7-5.1z"/><path id="XMLID_828_" class="st19" d="M-135.8 9.7l-1.1-3.4-1.1-1-1.4 1.5 1.7 5.1 1.9-2.2z"/><path id="XMLID_827_" class="st21" d="M-134.6 8.3l-2.3-2 1.1 3.4 1.2-1.4z"/><path id="XMLID_826_" class="st21" d="M-138 25.4l7.3-7-.6-4.3-9.2 8.7 2.5 2.6z"/><path id="XMLID_825_" class="st19" d="M-141.5 21.7l1 1.1 9.2-8.7-.7-4.4-9 8.6-.5 3.4z"/><path id="XMLID_824_" class="st19" d="M-135.8 27.6l5.6-5.9-.5-3.3-7.3 7 2.2 2.2z"/><path id="XMLID_823_" class="st21" d="M-141 18.3l9-8.6-.6-4.4-7.5 7.2-.9 5.8z"/><path id="XMLID_822_" class="st19" d="M-139.3 6.8l-.8 5.7 7.5-7.2-.6-4.3-6.1 5.8z"/><path id="XMLID_821_" class="st15" d="M-138.5.9V1l.1-.1h-.1z"/><path id="XMLID_820_" class="st21" d="M-133.2.9h-5.2l-.1.1-.8 5.8 6.1-5.8V.9z"/><path id="XMLID_819_" class="st19" d="M-133.2-4.5h-5.3l-1.6 2.2 1.6 3.2h5.3l1.7-3.2-1.7-2.2z"/></g></svg>